mtllib material.mtl
o Default
v 5.5 2.5 -2
v 5.5 7.5 -2
v 5.5 7.5 -7
v 5.5 2.5 -7
v 5.5 -2.5 -2
v 5.5 2.5 -7
v 5.5 2.5 -2
v 5.5 -2.5 -7
v 5.5 -2.5 3
v 5.5 2.5 -2
v 5.5 2.5 3
v 5.5 -2.5 -2
v 5.5 2.5 3
v 5.5 7.5 -2
v 5.5 7.5 3
v 5.5 2.5 -2
v 0.5 2.5 3
v 5.5 7.5 3
v 0.5 7.5 3
v 5.5 2.5 3
v 0.5 -2.5 3
v 5.5 2.5 3
v 0.5 2.5 3
v 5.5 -2.5 3
v -4.5 2.5 3
v 0.5 7.5 3
v -4.5 7.5 3
v 0.5 2.5 3
v -4.5 -2.5 3
v 0.5 2.5 3
v -4.5 2.5 3
v 0.5 -2.5 3
v 0.5 -2.5 3
v -4.5 -2.5 -2
v 0.5 -2.5 -2
v -4.5 -2.5 3
v 5.5 -2.5 3
v 0.5 -2.5 -2
v 5.5 -2.5 -2
v 0.5 -2.5 3
v 5.5 -2.5 -2
v 0.5 -2.5 -7
v 5.5 -2.5 -7
v 0.5 -2.5 -2
v 0.5 -2.5 -2
v -4.5 -2.5 -7
v 0.5 -2.5 -7
v -4.5 -2.5 -2
v 0.5 7.5 -2
v -4.5 7.5 3
v 0.5 7.5 3
v -4.5 7.5 -2
v 5.5 7.5 -2
v 0.5 7.5 3
v 5.5 7.5 3
v 0.5 7.5 -2
v 5.5 7.5 -7
v 0.5 7.5 -2
v 5.5 7.5 -2
v 0.5 7.5 -7
v 0.5 7.5 -7
v -4.5 7.5 -2
v 0.5 7.5 -2
v -4.5 7.5 -7
v -4.5 2.5 -2
v -4.5 7.5 3
v -4.5 7.5 -2
v -4.5 2.5 3
v -4.5 -2.5 -2
v -4.5 2.5 3
v -4.5 2.5 -2
v -4.5 -2.5 3
v -4.5 -2.5 -7
v -4.5 2.5 -2
v -4.5 2.5 -7
v -4.5 -2.5 -2
v -4.5 2.5 -7
v -4.5 7.5 -2
v -4.5 7.5 -7
v -4.5 2.5 -2
v 5.5 2.5 -7
v 0.5 7.5 -7
v 5.5 7.5 -7
v 0.5 2.5 -7
v 0.5 2.5 -7
v -4.5 7.5 -7
v 0.5 7.5 -7
v -4.5 2.5 -7
v 0.5 -2.5 -7
v -4.5 2.5 -7
v 0.5 2.5 -7
v -4.5 -2.5 -7
v 5.5 -2.5 -7
v 0.5 2.5 -7
v 5.5 2.5 -7
v 0.5 -2.5 -7
vt 0.20000000298023224 0.0833333358168602
vt 0.15000000596046448 0.1666666716337204
vt 0.20000000298023224 0.1666666716337204
vt 0.15000000596046448 0.0833333358168602
vt 0.20000000298023224 0
vt 0.15000000596046448 0
vt 0.25 0
vt 0.25 0.0833333358168602
vt 0.25 0.1666666716337204
vt 0.10000000149011612 0.0833333358168602
vt 0.05000000074505806 0.1666666716337204
vt 0.10000000149011612 0.1666666716337204
vt 0.05000000074505806 0.0833333358168602
vt 0 0.1666666716337204
vt 0 0.0833333358168602
vt 0.05000000074505806 0
vt 0 0
vt 0.10000000149011612 0
vn 1 0 0
vn 0 0 1
vn 0 -1 0
vn 0 1 0
vn -1 0 0
vn 0 0 -1
g CubeProp
usemtl 13
f 1/1/1 3/2/1 2/3/1
f 1/1/1 4/4/1 3/2/1
f 5/5/1 6/4/1 7/1/1
f 5/5/1 8/6/1 6/4/1
f 9/7/1 10/1/1 11/8/1
f 9/7/1 12/5/1 10/1/1
f 13/8/1 14/3/1 15/9/1
f 13/8/1 16/1/1 14/3/1
f 17/1/2 18/2/2 19/3/2
f 17/1/2 20/4/2 18/2/2
f 21/5/2 22/4/2 23/1/2
f 21/5/2 24/6/2 22/4/2
f 25/8/2 26/3/2 27/9/2
f 25/8/2 28/1/2 26/3/2
f 29/7/2 30/1/2 31/8/2
f 29/7/2 32/5/2 30/1/2
f 33/3/3 34/4/3 35/1/3
f 33/3/3 36/2/3 34/4/3
f 37/9/3 38/1/3 39/8/3
f 37/9/3 40/3/3 38/1/3
f 41/8/3 42/3/3 43/9/3
f 41/8/3 44/1/3 42/3/3
f 45/1/3 46/2/3 47/3/3
f 45/1/3 48/4/3 46/2/3
f 49/1/4 50/2/4 51/3/4
f 49/1/4 52/4/4 50/2/4
f 53/8/4 54/3/4 55/9/4
f 53/8/4 56/1/4 54/3/4
f 57/9/4 58/1/4 59/8/4
f 57/9/4 60/3/4 58/1/4
f 61/3/4 62/4/4 63/1/4
f 61/3/4 64/2/4 62/4/4
f 65/1/5 66/2/5 67/3/5
f 65/1/5 68/4/5 66/2/5
f 69/5/5 70/4/5 71/1/5
f 69/5/5 72/6/5 70/4/5
f 73/7/5 74/1/5 75/8/5
f 73/7/5 76/5/5 74/1/5
f 77/8/5 78/3/5 79/9/5
f 77/8/5 80/1/5 78/3/5
f 81/10/6 82/11/6 83/12/6
f 81/10/6 84/13/6 82/11/6
f 85/13/6 86/14/6 87/11/6
f 85/13/6 88/15/6 86/14/6
f 89/16/6 90/15/6 91/13/6
f 89/16/6 92/17/6 90/15/6
f 93/18/6 94/13/6 95/10/6
f 93/18/6 96/16/6 94/13/6
