mtllib material.mtl
o Default
v -10 1 1
v -10 2 1
v -9 2 1
v -9 1 1
v -10 -1 1
v -9 0 1
v -10 0 1
v -9 -1 1
v -10 -2 1
v -9 -1 1
v -10 -1 1
v -9 -2 1
v -3 2 0
v -2 3 1
v -3 3 1
v -2 2 0
v -4 1 2
v -3 2 0
v -4 2 2
v -3 1 1
v -6 0 0
v -5 1 2
v -6 1 1
v -5 0 0
v -5 0 0
v -4 1 2
v -5 1 2
v -4 0 1
v -4 0 1
v -3 1 1
v -4 1 2
v -3 0 2
v -3 0 2
v -2 1 1
v -3 1 1
v -2 0 2
v -2 -1 1
v -1 0 1
v -2 0 2
v -1 -1 1
v -2 0 2
v -1 1 1
v -2 1 1
v -1 0 1
v -2 1 1
v -1 2 1
v -2 2 0
v -1 1 1
v -3 1 1
v -2 2 0
v -3 2 0
v -2 1 1
v -5 1 2
v -4 2 2
v -5 2 2
v -4 1 2
v -6 1 1
v -5 2 2
v -6 2 1
v -5 1 2
v -7 1 0
v -6 2 1
v -7 2 0
v -6 1 1
v -7 0 2
v -6 1 1
v -7 1 0
v -6 0 0
v -7 -1 2
v -6 0 0
v -7 0 2
v -6 -1 0
v -8 1 0
v -7 2 0
v -8 2 0
v -7 1 0
v -8 0 2
v -7 1 0
v -8 1 0
v -7 0 2
v -10 0 1
v -9 1 1
v -10 1 1
v -9 0 1
v -9 0 1
v -8 1 0
v -9 1 1
v -8 0 2
v -9 1 1
v -8 2 0
v -9 2 1
v -8 1 0
v -9 2 1
v -8 3 1
v -9 3 1
v -8 2 0
v -8 2 0
v -7 3 1
v -8 3 1
v -7 2 0
v -7 2 0
v -6 3 1
v -7 3 1
v -6 2 1
v -6 2 1
v -5 3 1
v -6 3 1
v -5 2 2
v -5 2 2
v -4 3 1
v -5 3 1
v -4 2 2
v -4 2 2
v -3 3 1
v -4 3 1
v -3 2 0
v -2 2 0
v -1 3 1
v -2 3 1
v -1 2 1
v -1 2 1
v 0 3 1
v -1 3 1
v 0 2 1
v -1 1 1
v 0 2 1
v -1 2 1
v 0 1 0
v -1 0 1
v 0 1 0
v -1 1 1
v 0 0 0
v -1 -1 1
v 0 0 0
v -1 0 1
v 0 -1 1
v -3 -2 1
v -2 -1 1
v -3 -1 1
v -2 -2 1
v -1 -2 1
v 0 -1 1
v -1 -1 1
v 0 -2 1
v -10 2 1
v -9 3 1
v -10 3 1
v -9 2 1
v -4 -2 1
v -3 -1 1
v -4 -1 1
v -3 -2 1
v -5 -2 1
v -4 -1 1
v -5 -1 0
v -4 -2 1
v -9 -2 1
v -8 -1 2
v -9 -1 1
v -8 -2 1
v -9 -1 1
v -8 0 2
v -9 0 1
v -8 -1 2
v -8 -1 2
v -7 0 2
v -8 0 2
v -7 -1 2
v -8 -2 1
v -7 -1 2
v -8 -1 2
v -7 -2 1
v -7 -2 1
v -6 -1 0
v -7 -1 2
v -6 -2 1
v -6 -2 1
v -5 -1 0
v -6 -1 0
v -5 -2 1
v -6 -1 0
v -5 0 0
v -6 0 0
v -5 -1 0
v -5 -1 0
v -4 0 1
v -5 0 0
v -4 -1 1
v -4 -1 1
v -3 0 2
v -4 0 1
v -3 -1 1
v -3 -1 1
v -2 0 2
v -3 0 2
v -2 -1 1
v -2 -2 1
v -1 -1 1
v -2 -1 1
v -1 -2 1
v 4 -2 1
v 5 -1 1
v 4 -1 1
v 5 -2 1
v 4 -1 1
v 5 0 1
v 4 0 1
v 5 -1 1
v 4 0 1
v 5 1 1
v 4 1 1
v 5 0 1
v 4 1 1
v 5 2 1
v 4 2 1
v 5 1 1
v 4 2 1
v 5 3 1
v 4 3 1
v 5 2 1
v 3 2 1
v 4 3 1
v 3 3 1
v 4 2 1
v 0 2 1
v 1 3 1
v 0 3 1
v 1 2 0.5
v 1 2 0.5
v 2 3 1
v 1 3 1
v 2 2 0.5
v 2 2 0.5
v 3 3 1
v 2 3 1
v 3 2 1
v 3 1 1.5
v 4 2 1
v 3 2 1
v 4 1 1
v 3 0 1.5
v 4 1 1
v 3 1 1.5
v 4 0 1
v 3 -1 1
v 4 0 1
v 3 0 1.5
v 4 -1 1
v 3 -2 1
v 4 -1 1
v 3 -1 1
v 4 -2 1
v 2 -2 1
v 3 -1 1
v 2 -1 1
v 3 -2 1
v 1 -2 1
v 2 -1 1
v 1 -1 1
v 2 -2 1
v 1 -1 1
v 2 0 1.5
v 1 0 0
v 2 -1 1
v 1 0 0
v 2 1 1
v 1 1 -0.5
v 2 0 1.5
v 2 -1 1
v 3 0 1.5
v 2 0 1.5
v 3 -1 1
v 2 0 1.5
v 3 1 1.5
v 2 1 1
v 3 0 1.5
v 2 1 1
v 3 2 1
v 2 2 0.5
v 3 1 1.5
v 1 1 -0.5
v 2 2 0.5
v 1 2 0.5
v 2 1 1
v 0 1 0
v 1 2 0.5
v 0 2 1
v 1 1 -0.5
v 0 0 0
v 1 1 -0.5
v 0 1 0
v 1 0 0
v 0 -1 1
v 1 0 0
v 0 0 0
v 1 -1 1
v 0 -2 1
v 1 -1 1
v 0 -1 1
v 1 -2 1
vt 0.4000000059604645 0.5833333134651184
vt 0.3499999940395355 0.6666666865348816
vt 0.4000000059604645 0.6666666865348816
vt 0.3499999940395355 0.5833333134651184
vn 0 0 1
vn 0 -0.70710678 0.70710678
vn 0.89442719 0 0.4472136
vn 0.57735027 0.57735027 0.57735027
vn -0.57735027 -0.57735027 0.57735027
vn 0 -0.89442719 0.4472136
vn 0.57735027 -0.57735027 0.57735027
vn -0.57735027 0.57735027 0.57735027
vn 0 0.70710678 0.70710678
vn 0.70710678 0 0.70710678
vn -0.70710678 0 0.70710678
vn -0.40824829 0.81649658 0.40824829
vn 0.81649658 -0.40824829 0.40824829
vn 0 0.89442719 0.4472136
vn 0.40824829 -0.40824829 0.81649658
vn 0 -0.4472136 0.89442719
vn -0.4472136 0 0.89442719
vn 0 0.4472136 0.89442719
vn 0.4472136 0 0.89442719
vn -0.72760688 0.48507125 0.48507125
vn -0.80178373 0.26726124 0.53452248
vn -0.40824829 0.40824829 0.81649658
vn 0.33333333 -0.66666667 0.66666667
g GrassFill
usemtl 13
f 1/1/1 3/2/1 2/3/1
f 1/1/1 4/4/1 3/2/1
f 5/1/1 6/2/1 7/3/1
f 5/1/1 8/4/1 6/2/1
f 9/1/1 10/2/1 11/3/1
f 9/1/1 12/4/1 10/2/1
f 13/1/2 14/2/2 15/3/2
f 13/1/2 16/4/2 14/2/2
f 17/1/3 18/2/3 19/3/3
f 17/1/4 20/4/4 18/2/4
f 21/1/5 22/2/5 23/3/5
f 21/1/6 24/4/6 22/2/6
f 25/1/6 26/2/6 27/3/6
f 25/1/5 28/4/5 26/2/5
f 29/1/7 30/2/7 31/3/7
f 29/1/8 32/4/8 30/2/8
f 33/1/9 34/2/9 35/3/9
f 33/1/9 36/4/9 34/2/9
f 37/1/7 38/2/7 39/3/7
f 37/1/1 40/4/1 38/2/1
f 41/1/9 42/2/9 43/3/9
f 41/1/10 44/4/10 42/2/10
f 45/1/8 46/2/8 47/3/8
f 45/1/1 48/4/1 46/2/1
f 49/1/9 50/2/9 51/3/9
f 49/1/9 52/4/9 50/2/9
f 53/1/1 54/2/1 55/3/1
f 53/1/1 56/4/1 54/2/1
f 57/1/11 58/2/11 59/3/11
f 57/1/11 60/4/11 58/2/11
f 61/1/11 62/2/11 63/3/11
f 61/1/11 64/4/11 62/2/11
f 65/1/12 66/2/12 67/3/12
f 65/1/13 68/4/13 66/2/13
f 69/1/3 70/2/3 71/3/3
f 69/1/3 72/4/3 70/2/3
f 73/1/1 74/2/1 75/3/1
f 73/1/1 76/4/1 74/2/1
f 77/1/14 78/2/14 79/3/14
f 77/1/14 80/4/14 78/2/14
f 81/1/1 82/2/1 83/3/1
f 81/1/1 84/4/1 82/2/1
f 85/1/10 86/2/10 87/3/10
f 85/1/12 88/4/12 86/2/12
f 89/1/10 90/2/10 91/3/10
f 89/1/10 92/4/10 90/2/10
f 93/1/1 94/2/1 95/3/1
f 93/1/7 96/4/7 94/2/7
f 97/1/2 98/2/2 99/3/2
f 97/1/2 100/4/2 98/2/2
f 101/1/2 102/2/2 103/3/2
f 101/1/11 104/4/11 102/2/11
f 105/1/1 106/2/1 107/3/1
f 105/1/8 108/4/8 106/2/8
f 109/1/9 110/2/9 111/3/9
f 109/1/9 112/4/9 110/2/9
f 113/1/9 114/2/9 115/3/9
f 113/1/13 116/4/13 114/2/13
f 117/1/2 118/2/2 119/3/2
f 117/1/11 120/4/11 118/2/11
f 121/1/1 122/2/1 123/3/1
f 121/1/1 124/4/1 122/2/1
f 125/1/1 126/2/1 127/3/1
f 125/1/7 128/4/7 126/2/7
f 129/1/10 130/2/10 131/3/10
f 129/1/10 132/4/10 130/2/10
f 133/1/10 134/2/10 135/3/10
f 133/1/9 136/4/9 134/2/9
f 137/1/1 138/2/1 139/3/1
f 137/1/1 140/4/1 138/2/1
f 141/1/1 142/2/1 143/3/1
f 141/1/1 144/4/1 142/2/1
f 145/1/1 146/2/1 147/3/1
f 145/1/1 148/4/1 146/2/1
f 149/1/1 150/2/1 151/3/1
f 149/1/1 152/4/1 150/2/1
f 153/1/8 154/2/8 155/3/8
f 153/1/1 156/4/1 154/2/1
f 157/1/11 158/2/11 159/3/11
f 157/1/2 160/4/2 158/2/2
f 161/1/11 162/2/11 163/3/11
f 161/1/11 164/4/11 162/2/11
f 165/1/1 166/2/1 167/3/1
f 165/1/1 168/4/1 166/2/1
f 169/1/2 170/2/2 171/3/2
f 169/1/2 172/4/2 170/2/2
f 173/1/13 174/2/13 175/3/13
f 173/1/9 176/4/9 174/2/9
f 177/1/9 178/2/9 179/3/9
f 177/1/9 180/4/9 178/2/9
f 181/1/1 182/2/1 183/3/1
f 181/1/1 184/4/1 182/2/1
f 185/1/11 186/2/11 187/3/11
f 185/1/11 188/4/11 186/2/11
f 189/1/11 190/2/11 191/3/11
f 189/1/2 192/4/2 190/2/2
f 193/1/2 194/2/2 195/3/2
f 193/1/2 196/4/2 194/2/2
f 197/1/1 198/2/1 199/3/1
f 197/1/1 200/4/1 198/2/1
f 201/1/1 202/2/1 203/3/1
f 201/1/1 204/4/1 202/2/1
f 205/1/1 206/2/1 207/3/1
f 205/1/1 208/4/1 206/2/1
f 209/1/1 210/2/1 211/3/1
f 209/1/1 212/4/1 210/2/1
f 213/1/1 214/2/1 215/3/1
f 213/1/1 216/4/1 214/2/1
f 217/1/1 218/2/1 219/3/1
f 217/1/1 220/4/1 218/2/1
f 221/1/1 222/2/1 223/3/1
f 221/1/1 224/4/1 222/2/1
f 225/1/1 226/2/1 227/3/1
f 225/1/15 228/4/15 226/2/15
f 229/1/16 230/2/16 231/3/16
f 229/1/16 232/4/16 230/2/16
f 233/1/16 234/2/16 235/3/16
f 233/1/17 236/4/17 234/2/17
f 237/1/18 238/2/18 239/3/18
f 237/1/19 240/4/19 238/2/19
f 241/1/19 242/2/19 243/3/19
f 241/1/19 244/4/19 242/2/19
f 245/1/15 246/2/15 247/3/15
f 245/1/1 248/4/1 246/2/1
f 249/1/1 250/2/1 251/3/1
f 249/1/1 252/4/1 250/2/1
f 253/1/1 254/2/1 255/3/1
f 253/1/1 256/4/1 254/2/1
f 257/1/1 258/2/1 259/3/1
f 257/1/1 260/4/1 258/2/1
f 261/1/20 262/2/20 263/3/20
f 261/1/16 264/4/16 262/2/16
f 265/1/21 266/2/21 267/3/21
f 265/1/21 268/4/21 266/2/21
f 269/1/16 270/2/16 271/3/16
f 269/1/16 272/4/16 270/2/16
f 273/1/22 274/2/22 275/3/22
f 273/1/1 276/4/1 274/2/1
f 277/1/22 278/2/22 279/3/22
f 277/1/22 280/4/22 278/2/22
f 281/1/2 282/2/2 283/3/2
f 281/1/21 284/4/21 282/2/21
f 285/1/23 286/2/23 287/3/23
f 285/1/23 288/4/23 286/2/23
f 289/1/19 290/2/19 291/3/19
f 289/1/18 292/4/18 290/2/18
f 293/1/9 294/2/9 295/3/9
f 293/1/9 296/4/9 294/2/9
f 297/1/1 298/2/1 299/3/1
f 297/1/1 300/4/1 298/2/1
