mtllib material.mtl
o Default
v 5.5 -1 -2
v 5.5 0 -2
v 6.5 0 -2
v 6.5 -1 -2
v 6.5 -1 -1
v 7.5 0 -1
v 6.5 0 -1
v 7.5 -1 -1
v 4.5 -1 2
v 5.5 0 2
v 4.5 0 2
v 5.5 -1 2
v 2.5 -1 4
v 3.5 0 4
v 2.5 0 4
v 3.5 -1 4
v 5.5 -1 8
v 6.5 0 8
v 5.5 0 8
v 6.5 -1 8
v 1.5 -1 14
v 2.5 0 14
v 1.5 0 14
v 2.5 -1 14
v -0.5 -1 14
v 0.5 0 14
v -0.5 0 14
v 0.5 -1 14
v -3.5 -1 14
v -2.5 0 14
v -3.5 0 14
v -2.5 -1 14
v -0.5 0 15
v 0.5 1 15
v -0.5 1 15
v 0.5 0 15
v -1.5 -1 15
v -0.5 0 15
v -1.5 0 15
v -0.5 -1 15
v 2.5 -1 1
v 3.5 0 1
v 2.5 0 1
v 3.5 -1 1
v 3.5 -1 1
v 4.5 0 1
v 3.5 0 1
v 4.5 -1 1
v 4.5 -1 4
v 5.5 0 4
v 4.5 0 4
v 5.5 -1 4
v 3.5 0 13
v 4.5 1 13
v 3.5 1 13
v 4.5 0 13
v 3.5 -1 13
v 4.5 0 13
v 3.5 0 13
v 4.5 -1 13
v 2.5 -1 13
v 3.5 0 13
v 2.5 0 13
v 3.5 -1 13
v -6.5 -1 14
v -5.5 0 14
v -6.5 0 14
v -5.5 -1 14
v -5.5 -1 13
v -4.5 0 13
v -5.5 0 13
v -4.5 -1 13
v -8.5 -1 15
v -7.5 0 15
v -8.5 0 15
v -7.5 -1 15
v -7.5 -1 13
v -6.5 0 13
v -7.5 0 13
v -6.5 -1 13
v -4.5 -1 13
v -3.5 0 13
v -4.5 0 13
v -3.5 -1 13
v -4.5 -1 8
v -3.5 0 8
v -4.5 0 8
v -3.5 -1 8
v -5.5 -1 8
v -4.5 0 8
v -5.5 0 8
v -4.5 -1 8
v -6.5 -1 11
v -5.5 0 11
v -6.5 0 11
v -5.5 -1 11
v -34.5 -1 7
v -33.5 -0.10557281225919724 7.447213649749756
v -34.5 -0.10557281225919724 7.447213649749756
v -33.5 -1 7
v -32.5 -0.5 3
v -31.5 0.5 3
v -32.5 0.5 3
v -31.5 -0.5 3
v -31.5 -1 4
v -30.5 -0.10557281225919724 4.447213649749756
v -31.5 -0.10557281225919724 4.447213649749756
v -30.5 -1 4
v -34.5 -0.5 4
v -33.5 0.5 4
v -34.5 0.5 4
v -33.5 -0.5 4
v -26.5 6.590169906616211 6.5
v -28.5 8.826237678527832 7.5
v -26.5 8.826237678527832 6.5
v -28.5 6.590169906616211 7.5
v -47.5 -1 34
v -46.5 0 34
v -47.5 0 34
v -46.5 -1 34
v -45.5 -1 32
v -44.5 0 32
v -45.5 0 32
v -44.5 -1 32
v -49.5 -1 26
v -48.5 0 26
v -49.5 0 26
v -48.5 -1 26
v -42.5 -2 34
v -41.5 -1 34
v -42.5 -1 34
v -41.5 -2 34
v -40.5 -1 34
v -39.5 0 34
v -40.5 0 34
v -39.5 -1 34
v -43.5 -1 33
v -42.5 0 33
v -43.5 0 33
v -42.5 -1 33
v -44.5 -1 35
v -43.5 0 35
v -44.5 0 35
v -43.5 -1 35
v -46.5 -1 35
v -45.5 0 35
v -46.5 0 35
v -45.5 -1 35
v -47.5 -1 29
v -46.5 0 29
v -47.5 0 29
v -46.5 -1 29
v -47.5 -1 26
v -46.5 0 26
v -47.5 0 26
v -46.5 -1 26
v -44.5 -1 25
v -43.5 0 25
v -44.5 0 25
v -43.5 -1 25
v -42.5 -1 25
v -41.5 0 25
v -42.5 0 25
v -41.5 -1 25
v -43.5 -1 29
v -42.5 0 29
v -43.5 0 29
v -42.5 -1 29
v -45.5 -1 29
v -44.5 0 29
v -45.5 0 29
v -44.5 -1 29
v -49.5 -1 30
v -48.5 0 30
v -49.5 0 30
v -48.5 -1 30
v -52.5 -1 13
v -51.5 0 13
v -52.5 0 13
v -51.5 -1 13
v -49.5 -1 13
v -48.5 0 13
v -49.5 0 13
v -48.5 -1 13
v -52.5 0 13
v -51.5 1 13
v -52.5 1 13
v -51.5 0 13
v -50.5 -2 2
v -49.5 -1 2
v -50.5 -1 2
v -49.5 -2 2
v -48.5 -0.5 3
v -47.5 -0.05278640612959862 2.1055727005004883
v -48.5 -0.05278640612959862 2.1055727005004883
v -47.5 -0.5 3
v -47.5 -1 -1
v -46.5 0 -1
v -47.5 0 -1
v -46.5 -1 -1
v -49.5 -1 -4
v -48.5 0 -4
v -49.5 0 -4
v -48.5 -1 -4
v -48.5 -1 -5
v -47.5 0 -5
v -48.5 0 -5
v -47.5 -1 -5
v -45.5 -1 1
v -44.5 0 1
v -45.5 0 1
v -44.5 -1 1
v -51.5 -1 3
v -50.5 0 3
v -51.5 0 3
v -50.5 -1 3
v -51.5 -1 5
v -50.5 0 5
v -51.5 0 5
v -50.5 -1 5
v -53.5 -1 7
v -52.5 0 7
v -53.5 0 7
v -52.5 -1 7
v -51.5 -1 7
v -50.5 0 7
v -51.5 0 7
v -50.5 -1 7
v -48.5 -2 6
v -47.5 -1 6
v -48.5 -1 6
v -47.5 -2 6
v -48.5 -1 6
v -47.5 0 6
v -48.5 0 6
v -47.5 -1 6
v -47.5 -1 5
v -46.5 0 5
v -47.5 0 5
v -46.5 -1 5
v -45.5 -2 4
v -44.5 -1 4
v -45.5 -1 4
v -44.5 -2 4
v -45.5 -2 6
v -44.5 -1 6
v -45.5 -1 6
v -44.5 -2 6
v -45.5 -1 5
v -44.5 0 5
v -45.5 0 5
v -44.5 -1 5
v -45.5 -1 6
v -44.5 0 6
v -45.5 0 6
v -44.5 -1 6
v -52.5 -1 -3
v -51.5 0 -3
v -52.5 0 -3
v -51.5 -1 -3
v -53.5 -1 -4
v -52.5 0 -4
v -53.5 0 -4
v -52.5 -1 -4
v -53.5 -2 -8
v -52.5 -1 -8
v -53.5 -1 -8
v -52.5 -2 -8
v -2.5 -1 15
v -1.5 0 15
v -2.5 0 15
v -1.5 -1 15
v 7.5 -1 29
v 8.5 0 29
v 7.5 0 29
v 8.5 -1 29
v 6.5 -1 27
v 7.5 0 27
v 6.5 0 27
v 7.5 -1 27
v 4.5 -1 27
v 5.5 0 27
v 4.5 0 27
v 5.5 -1 27
v 1.5 -1 24
v 2.5 0 24
v 1.5 0 24
v 2.5 -1 24
v 5.5 -1 26
v 6.5 0 26
v 5.5 0 26
v 6.5 -1 26
v -3.5 -2 29
v -2.5 -1 29
v -3.5 -1 29
v -2.5 -2 29
v -2.5 -1 29
v -1.5 0 29
v -2.5 0 29
v -1.5 -1 29
v -0.5 -1 28
v 0.5 0 28
v -0.5 0 28
v 0.5 -1 28
v 1.5 -1 27
v 2.5 0 27
v 1.5 0 27
v 2.5 -1 27
v -0.5 -1 25
v 0.5 0 25
v -0.5 0 25
v 0.5 -1 25
v -3.5 -1 32
v -2.5 0 32
v -3.5 0 32
v -2.5 -1 32
v -4.5 -1 37
v -3.5 0 37
v -4.5 0 37
v -3.5 -1 37
v -6.5 -1 37
v -5.5 0 37
v -6.5 0 37
v -5.5 -1 37
v -5.5 -1 35
v -4.5 0 35
v -5.5 0 35
v -4.5 -1 35
v -7.5 -2 39
v -6.5 -1 39
v -7.5 -1 39
v -6.5 -2 39
v -7.5 -1 39
v -6.5 0 39
v -7.5 0 39
v -6.5 -1 39
v -5.5 -1 39
v -4.5 0 39
v -5.5 0 39
v -4.5 -1 39
v -6.5 -1 41
v -5.5 0 41
v -6.5 0 41
v -5.5 -1 41
v -9.5 -1 41
v -8.5 0 41
v -9.5 0 41
v -8.5 -1 41
v -10.5 -1 35
v -9.5 0 35
v -10.5 0 35
v -9.5 -1 35
v -13.5 -2 33
v -12.5 -1 33
v -13.5 -1 33
v -12.5 -2 33
v -12.5 -1 34
v -11.5 0 34
v -12.5 0 34
v -11.5 -1 34
v -17.5 -1 32
v -16.5 0 32
v -17.5 0 32
v -16.5 -1 32
v -19.5 -1 31
v -18.5 0 31
v -19.5 0 31
v -18.5 -1 31
v -20.5 -1 29
v -19.5 0 29
v -20.5 0 29
v -19.5 -1 29
v -19.5 -1 27
v -18.5 0 27
v -19.5 0 27
v -18.5 -1 27
v -17.5 -1 25
v -16.5 0 25
v -17.5 0 25
v -16.5 -1 25
v -23.5 -1 30
v -22.5 0 30
v -23.5 0 30
v -22.5 -1 30
v -25.5 -1 30
v -24.5 0 30
v -25.5 0 30
v -24.5 -1 30
v -32.5 -1 31
v -31.5 0 31
v -32.5 0 31
v -31.5 -1 31
v -35.5 -1 31
v -34.5 0 31
v -35.5 0 31
v -34.5 -1 31
v -38.5 -1 30
v -37.5 0 30
v -38.5 0 30
v -37.5 -1 30
v -34.5 -1 27
v -33.5 0 27
v -34.5 0 27
v -33.5 -1 27
v -28.5 -2 30
v -27.5 -1 30
v -28.5 -1 30
v -27.5 -2 30
v -28.5 -1 30
v -27.5 0 30
v -28.5 0 30
v -27.5 -1 30
v -37.5 -1 23
v -36.5 0 23
v -37.5 0 23
v -36.5 -1 23
v -42.5 -1 21
v -41.5 0 21
v -42.5 0 21
v -41.5 -1 21
v -44.5 -1 18
v -43.5 0 18
v -44.5 0 18
v -43.5 -1 18
v 4.5 -1 23
v 5.5 0 23
v 4.5 0 23
v 5.5 -1 23
v 3.5 -1 27
v 4.5 0 27
v 3.5 0 27
v 4.5 -1 27
v 6.5 -1 30
v 7.5 0 30
v 6.5 0 30
v 7.5 -1 30
v 7.5 -1 23
v 8.5 0 23
v 7.5 0 23
v 8.5 -1 23
v 4.5 -1 29
v 5.5 0 29
v 4.5 0 29
v 5.5 -1 29
v 2.5 -1 28
v 3.5 0 28
v 2.5 0 28
v 3.5 -1 28
v 7.5 -1 31
v 8.5 0 31
v 7.5 0 31
v 8.5 -1 31
v 8.5 -1 25
v 9.5 0 25
v 8.5 0 25
v 9.5 -1 25
v 6.5 -1 22
v 7.5 0 22
v 6.5 0 22
v 7.5 -1 22
v -4.5 -1 33
v -3.5 0 33
v -4.5 0 33
v -3.5 -1 33
v -3.5 -1 28
v -2.5 0 28
v -3.5 0 28
v -2.5 -1 28
v -8.5 -1 36
v -7.5 0 36
v -8.5 0 36
v -7.5 -1 36
v -9.5 -1 39
v -8.5 0 39
v -9.5 0 39
v -8.5 -1 39
v -7.5 -1 40
v -6.5 0 40
v -7.5 0 40
v -6.5 -1 40
v -7.5 0 39
v -6.5 1 39
v -7.5 1 39
v -6.5 0 39
v -18.5 -1 29
v -17.5 0 29
v -18.5 0 29
v -17.5 -1 29
v -21.5 -2 29
v -20.5 -1 29
v -21.5 -1 29
v -20.5 -2 29
v -21.5 -1 31
v -20.5 0 31
v -21.5 0 31
v -20.5 -1 31
v -29.5 -1 32
v -28.5 0 32
v -29.5 0 32
v -28.5 -1 32
v -27.5 -1 32
v -26.5 0 32
v -27.5 0 32
v -26.5 -1 32
v -31.5 -1 29
v -30.5 0 29
v -31.5 0 29
v -30.5 -1 29
v -34.5 -1 30
v -33.5 0 30
v -34.5 0 30
v -33.5 -1 30
v -33.5 -1 32
v -32.5 0 32
v -33.5 0 32
v -32.5 -1 32
v -42.5 -1 34
v -41.5 0 34
v -42.5 0 34
v -41.5 -1 34
v -44.5 -1 30
v -43.5 0 30
v -44.5 0 30
v -43.5 -1 30
v -46.5 -1 31
v -45.5 0 31
v -46.5 0 31
v -45.5 -1 31
v -48.5 -1 31
v -47.5 0 31
v -48.5 0 31
v -47.5 -1 31
v -50.5 -1 29
v -49.5 0 29
v -50.5 0 29
v -49.5 -1 29
v -47.5 -1 32
v -46.5 0 32
v -47.5 0 32
v -46.5 -1 32
v -45.5 -1 25
v -44.5 0 25
v -45.5 0 25
v -44.5 -1 25
v -43.5 -1 22
v -42.5 0 22
v -43.5 0 22
v -42.5 -1 22
v -41.5 -1 22
v -40.5 0 22
v -41.5 0 22
v -40.5 -1 22
v -44.5 -1 15
v -43.5 0 15
v -44.5 0 15
v -43.5 -1 15
v -42.5 -1 13
v -41.5 0 13
v -42.5 0 13
v -41.5 -1 13
v -46.5 -1 13
v -45.5 0 13
v -46.5 0 13
v -45.5 -1 13
v -48.5 -1 14
v -47.5 0 14
v -48.5 0 14
v -47.5 -1 14
v -51.5 -1 13
v -50.5 0 13
v -51.5 0 13
v -50.5 -1 13
v -52.5 -1 14
v -51.5 0 14
v -52.5 0 14
v -51.5 -1 14
v -49.5 -1 14
v -48.5 0 14
v -49.5 0 14
v -48.5 -1 14
v -53.5 -1 9
v -52.5 0 9
v -53.5 0 9
v -52.5 -1 9
v -52.5 -1 9
v -51.5 0 9
v -52.5 0 9
v -51.5 -1 9
v -54.5 -1 12
v -53.5 0 12
v -54.5 0 12
v -53.5 -1 12
v -53.5 -1 11
v -52.5 0 11
v -53.5 0 11
v -52.5 -1 11
v -49.5 -1 4
v -48.5 0 4
v -49.5 0 4
v -48.5 -1 4
v -49.5 -1 -1
v -48.5 0 -1
v -49.5 0 -1
v -48.5 -1 -1
v -48.5 -1 -1
v -47.5 0 -1
v -48.5 0 -1
v -47.5 -1 -1
v -47.5 -1 -3
v -46.5 0 -3
v -47.5 0 -3
v -46.5 -1 -3
v -50.5 -1 -3
v -49.5 0 -3
v -50.5 0 -3
v -49.5 -1 -3
v -54.5 -1 -2
v -53.5 0 -2
v -54.5 0 -2
v -53.5 -1 -2
v -54.5 -1 -7
v -53.5 0 -7
v -54.5 0 -7
v -53.5 -1 -7
v -23.5 -1 14
v -22.5 0 14
v -23.5 0 14
v -22.5 -1 14
v -25.5 -1 15
v -24.5 0 15
v -25.5 0 15
v -24.5 -1 15
v -21.5 -1 13
v -20.5 0 13
v -21.5 0 13
v -20.5 -1 13
v -19.5 -1 8
v -18.5 0 8
v -19.5 0 8
v -18.5 -1 8
v -20.5 -1 3
v -19.5 0 3
v -20.5 0 3
v -19.5 -1 3
v -22.5 -1 1
v -21.5 0 1
v -22.5 0 1
v -21.5 -1 1
v -17.5 -1 2
v -16.5 0 2
v -17.5 0 2
v -16.5 -1 2
v -17.5 -1 8
v -16.5 0 8
v -17.5 0 8
v -16.5 -1 8
v -20.5 -1 13
v -19.5 0 13
v -20.5 0 13
v -19.5 -1 13
v -21.5 -2 15
v -20.5 -1 15
v -21.5 -1 15
v -20.5 -2 15
v -21.5 -1 15
v -20.5 0 15
v -21.5 0 15
v -20.5 -1 15
v -19.5 -2 14
v -18.5 -1 14
v -19.5 -1 14
v -18.5 -2 14
v -19.5 -1 14
v -18.5 0 14
v -19.5 0 14
v -18.5 -1 14
v -21.5 -1 7
v -20.5 0 7
v -21.5 0 7
v -20.5 -1 7
v -22.5 -1 4
v -21.5 0 4
v -22.5 0 4
v -21.5 -1 4
v -20.5 -1 5
v -19.5 0 5
v -20.5 0 5
v -19.5 -1 5
vt 0.5 0.75
vt 0.44999998807907104 0.8333333134651184
vt 0.5 0.8333333134651184
vt 0.44999998807907104 0.75
vt 0.4000000059604645 0.8333333134651184
vt 0.4000000059604645 0.75
vt 0.0416666679084301 0.3333333432674408
vt 0 0.4000000059604645
vt 0.0416666679084301 0.4000000059604645
vt 0 0.3333333432674408
vt 0.2916666567325592 0.6666666865348816
vt 0.25 0.7333333492279053
vt 0.2916666567325592 0.7333333492279053
vt 0.25 0.6666666865348816
vn 0 0 1
vn 0 -0.44721364 0.89442717
vn -0.4472136 0 -0.89442719
vn 0 0.89442721 0.44721355
g NoCollision
usemtl 3
f 1/1/1 3/2/1 2/3/1
f 1/1/1 4/4/1 3/2/1
f 5/1/1 6/2/1 7/3/1
f 5/1/1 8/4/1 6/2/1
f 9/1/1 10/2/1 11/3/1
f 9/1/1 12/4/1 10/2/1
f 13/1/1 14/2/1 15/3/1
f 13/1/1 16/4/1 14/2/1
f 17/1/1 18/2/1 19/3/1
f 17/1/1 20/4/1 18/2/1
f 21/1/1 22/2/1 23/3/1
f 21/1/1 24/4/1 22/2/1
f 25/1/1 26/2/1 27/3/1
f 25/1/1 28/4/1 26/2/1
f 29/1/1 30/2/1 31/3/1
f 29/1/1 32/4/1 30/2/1
f 33/4/1 34/5/1 35/2/1
f 33/4/1 36/6/1 34/5/1
f 37/4/1 38/5/1 39/2/1
f 37/4/1 40/6/1 38/5/1
f 41/4/1 42/5/1 43/2/1
f 41/4/1 44/6/1 42/5/1
f 45/4/1 46/5/1 47/2/1
f 45/4/1 48/6/1 46/5/1
f 49/4/1 50/5/1 51/2/1
f 49/4/1 52/6/1 50/5/1
f 53/4/1 54/5/1 55/2/1
f 53/4/1 56/6/1 54/5/1
f 57/4/1 58/5/1 59/2/1
f 57/4/1 60/6/1 58/5/1
f 61/4/1 62/5/1 63/2/1
f 61/4/1 64/6/1 62/5/1
f 65/4/1 66/5/1 67/2/1
f 65/4/1 68/6/1 66/5/1
f 69/4/1 70/5/1 71/2/1
f 69/4/1 72/6/1 70/5/1
f 73/1/1 74/2/1 75/3/1
f 73/1/1 76/4/1 74/2/1
f 77/1/1 78/2/1 79/3/1
f 77/1/1 80/4/1 78/2/1
f 81/1/1 82/2/1 83/3/1
f 81/1/1 84/4/1 82/2/1
f 85/1/1 86/2/1 87/3/1
f 85/1/1 88/4/1 86/2/1
f 89/1/1 90/2/1 91/3/1
f 89/1/1 92/4/1 90/2/1
f 93/1/1 94/2/1 95/3/1
f 93/1/1 96/4/1 94/2/1
usemtl 2
f 97/7/2 98/8/2 99/9/2
f 97/7/2 100/10/2 98/8/2
f 101/7/1 102/8/1 103/9/1
f 101/7/1 104/10/1 102/8/1
f 105/7/2 106/8/2 107/9/2
f 105/7/2 108/10/2 106/8/2
f 109/7/1 110/8/1 111/9/1
f 109/7/1 112/10/1 110/8/1
usemtl 4
f 113/11/3 114/12/3 115/13/3
f 113/11/3 116/14/3 114/12/3
usemtl 9
f 117/4/1 118/5/1 119/2/1
f 117/4/1 120/6/1 118/5/1
f 121/4/1 122/5/1 123/2/1
f 121/4/1 124/6/1 122/5/1
f 125/4/1 126/5/1 127/2/1
f 125/4/1 128/6/1 126/5/1
f 129/4/1 130/5/1 131/2/1
f 129/4/1 132/6/1 130/5/1
f 133/4/1 134/5/1 135/2/1
f 133/4/1 136/6/1 134/5/1
f 137/4/1 138/5/1 139/2/1
f 137/4/1 140/6/1 138/5/1
f 141/4/1 142/5/1 143/2/1
f 141/4/1 144/6/1 142/5/1
f 145/4/1 146/5/1 147/2/1
f 145/4/1 148/6/1 146/5/1
f 149/4/1 150/5/1 151/2/1
f 149/4/1 152/6/1 150/5/1
f 153/4/1 154/5/1 155/2/1
f 153/4/1 156/6/1 154/5/1
f 157/4/1 158/5/1 159/2/1
f 157/4/1 160/6/1 158/5/1
f 161/4/1 162/5/1 163/2/1
f 161/4/1 164/6/1 162/5/1
f 165/4/1 166/5/1 167/2/1
f 165/4/1 168/6/1 166/5/1
f 169/4/1 170/5/1 171/2/1
f 169/4/1 172/6/1 170/5/1
f 173/4/1 174/5/1 175/2/1
f 173/4/1 176/6/1 174/5/1
f 177/4/1 178/5/1 179/2/1
f 177/4/1 180/6/1 178/5/1
f 181/4/1 182/5/1 183/2/1
f 181/4/1 184/6/1 182/5/1
f 185/4/1 186/5/1 187/2/1
f 185/4/1 188/6/1 186/5/1
f 189/4/1 190/5/1 191/2/1
f 189/4/1 192/6/1 190/5/1
f 193/4/4 194/5/4 195/2/4
f 193/4/4 196/6/4 194/5/4
f 197/4/1 198/5/1 199/2/1
f 197/4/1 200/6/1 198/5/1
f 201/4/1 202/5/1 203/2/1
f 201/4/1 204/6/1 202/5/1
f 205/4/1 206/5/1 207/2/1
f 205/4/1 208/6/1 206/5/1
f 209/4/1 210/5/1 211/2/1
f 209/4/1 212/6/1 210/5/1
f 213/4/1 214/5/1 215/2/1
f 213/4/1 216/6/1 214/5/1
f 217/4/1 218/5/1 219/2/1
f 217/4/1 220/6/1 218/5/1
f 221/4/1 222/5/1 223/2/1
f 221/4/1 224/6/1 222/5/1
f 225/4/1 226/5/1 227/2/1
f 225/4/1 228/6/1 226/5/1
f 229/4/1 230/5/1 231/2/1
f 229/4/1 232/6/1 230/5/1
f 233/4/1 234/5/1 235/2/1
f 233/4/1 236/6/1 234/5/1
f 237/4/1 238/5/1 239/2/1
f 237/4/1 240/6/1 238/5/1
f 241/4/1 242/5/1 243/2/1
f 241/4/1 244/6/1 242/5/1
f 245/4/1 246/5/1 247/2/1
f 245/4/1 248/6/1 246/5/1
f 249/4/1 250/5/1 251/2/1
f 249/4/1 252/6/1 250/5/1
f 253/4/1 254/5/1 255/2/1
f 253/4/1 256/6/1 254/5/1
f 257/4/1 258/5/1 259/2/1
f 257/4/1 260/6/1 258/5/1
f 261/4/1 262/5/1 263/2/1
f 261/4/1 264/6/1 262/5/1
f 265/4/1 266/5/1 267/2/1
f 265/4/1 268/6/1 266/5/1
f 269/4/1 270/5/1 271/2/1
f 269/4/1 272/6/1 270/5/1
f 273/4/1 274/5/1 275/2/1
f 273/4/1 276/6/1 274/5/1
f 277/4/1 278/5/1 279/2/1
f 277/4/1 280/6/1 278/5/1
f 281/4/1 282/5/1 283/2/1
f 281/4/1 284/6/1 282/5/1
f 285/4/1 286/5/1 287/2/1
f 285/4/1 288/6/1 286/5/1
f 289/4/1 290/5/1 291/2/1
f 289/4/1 292/6/1 290/5/1
f 293/4/1 294/5/1 295/2/1
f 293/4/1 296/6/1 294/5/1
f 297/4/1 298/5/1 299/2/1
f 297/4/1 300/6/1 298/5/1
f 301/4/1 302/5/1 303/2/1
f 301/4/1 304/6/1 302/5/1
f 305/4/1 306/5/1 307/2/1
f 305/4/1 308/6/1 306/5/1
f 309/4/1 310/5/1 311/2/1
f 309/4/1 312/6/1 310/5/1
f 313/4/1 314/5/1 315/2/1
f 313/4/1 316/6/1 314/5/1
f 317/4/1 318/5/1 319/2/1
f 317/4/1 320/6/1 318/5/1
f 321/4/1 322/5/1 323/2/1
f 321/4/1 324/6/1 322/5/1
f 325/4/1 326/5/1 327/2/1
f 325/4/1 328/6/1 326/5/1
f 329/4/1 330/5/1 331/2/1
f 329/4/1 332/6/1 330/5/1
f 333/4/1 334/5/1 335/2/1
f 333/4/1 336/6/1 334/5/1
f 337/4/1 338/5/1 339/2/1
f 337/4/1 340/6/1 338/5/1
f 341/4/1 342/5/1 343/2/1
f 341/4/1 344/6/1 342/5/1
f 345/4/1 346/5/1 347/2/1
f 345/4/1 348/6/1 346/5/1
f 349/4/1 350/5/1 351/2/1
f 349/4/1 352/6/1 350/5/1
f 353/4/1 354/5/1 355/2/1
f 353/4/1 356/6/1 354/5/1
f 357/4/1 358/5/1 359/2/1
f 357/4/1 360/6/1 358/5/1
f 361/4/1 362/5/1 363/2/1
f 361/4/1 364/6/1 362/5/1
f 365/4/1 366/5/1 367/2/1
f 365/4/1 368/6/1 366/5/1
f 369/4/1 370/5/1 371/2/1
f 369/4/1 372/6/1 370/5/1
f 373/4/1 374/5/1 375/2/1
f 373/4/1 376/6/1 374/5/1
f 377/4/1 378/5/1 379/2/1
f 377/4/1 380/6/1 378/5/1
f 381/4/1 382/5/1 383/2/1
f 381/4/1 384/6/1 382/5/1
f 385/4/1 386/5/1 387/2/1
f 385/4/1 388/6/1 386/5/1
f 389/4/1 390/5/1 391/2/1
f 389/4/1 392/6/1 390/5/1
f 393/4/1 394/5/1 395/2/1
f 393/4/1 396/6/1 394/5/1
f 397/4/1 398/5/1 399/2/1
f 397/4/1 400/6/1 398/5/1
f 401/4/1 402/5/1 403/2/1
f 401/4/1 404/6/1 402/5/1
f 405/4/1 406/5/1 407/2/1
f 405/4/1 408/6/1 406/5/1
f 409/4/1 410/5/1 411/2/1
f 409/4/1 412/6/1 410/5/1
f 413/4/1 414/5/1 415/2/1
f 413/4/1 416/6/1 414/5/1
f 417/4/1 418/5/1 419/2/1
f 417/4/1 420/6/1 418/5/1
f 421/4/1 422/5/1 423/2/1
f 421/4/1 424/6/1 422/5/1
f 425/1/1 426/2/1 427/3/1
f 425/1/1 428/4/1 426/2/1
f 429/1/1 430/2/1 431/3/1
f 429/1/1 432/4/1 430/2/1
f 433/1/1 434/2/1 435/3/1
f 433/1/1 436/4/1 434/2/1
f 437/1/1 438/2/1 439/3/1
f 437/1/1 440/4/1 438/2/1
f 441/1/1 442/2/1 443/3/1
f 441/1/1 444/4/1 442/2/1
f 445/1/1 446/2/1 447/3/1
f 445/1/1 448/4/1 446/2/1
f 449/1/1 450/2/1 451/3/1
f 449/1/1 452/4/1 450/2/1
f 453/1/1 454/2/1 455/3/1
f 453/1/1 456/4/1 454/2/1
f 457/1/1 458/2/1 459/3/1
f 457/1/1 460/4/1 458/2/1
f 461/1/1 462/2/1 463/3/1
f 461/1/1 464/4/1 462/2/1
f 465/1/1 466/2/1 467/3/1
f 465/1/1 468/4/1 466/2/1
f 469/1/1 470/2/1 471/3/1
f 469/1/1 472/4/1 470/2/1
f 473/1/1 474/2/1 475/3/1
f 473/1/1 476/4/1 474/2/1
f 477/1/1 478/2/1 479/3/1
f 477/1/1 480/4/1 478/2/1
f 481/1/1 482/2/1 483/3/1
f 481/1/1 484/4/1 482/2/1
f 485/1/1 486/2/1 487/3/1
f 485/1/1 488/4/1 486/2/1
f 489/1/1 490/2/1 491/3/1
f 489/1/1 492/4/1 490/2/1
f 493/1/1 494/2/1 495/3/1
f 493/1/1 496/4/1 494/2/1
f 497/1/1 498/2/1 499/3/1
f 497/1/1 500/4/1 498/2/1
f 501/1/1 502/2/1 503/3/1
f 501/1/1 504/4/1 502/2/1
f 505/1/1 506/2/1 507/3/1
f 505/1/1 508/4/1 506/2/1
f 509/1/1 510/2/1 511/3/1
f 509/1/1 512/4/1 510/2/1
f 513/1/1 514/2/1 515/3/1
f 513/1/1 516/4/1 514/2/1
f 517/1/1 518/2/1 519/3/1
f 517/1/1 520/4/1 518/2/1
f 521/1/1 522/2/1 523/3/1
f 521/1/1 524/4/1 522/2/1
f 525/1/1 526/2/1 527/3/1
f 525/1/1 528/4/1 526/2/1
f 529/1/1 530/2/1 531/3/1
f 529/1/1 532/4/1 530/2/1
f 533/1/1 534/2/1 535/3/1
f 533/1/1 536/4/1 534/2/1
f 537/1/1 538/2/1 539/3/1
f 537/1/1 540/4/1 538/2/1
f 541/1/1 542/2/1 543/3/1
f 541/1/1 544/4/1 542/2/1
f 545/1/1 546/2/1 547/3/1
f 545/1/1 548/4/1 546/2/1
f 549/1/1 550/2/1 551/3/1
f 549/1/1 552/4/1 550/2/1
f 553/1/1 554/2/1 555/3/1
f 553/1/1 556/4/1 554/2/1
f 557/1/1 558/2/1 559/3/1
f 557/1/1 560/4/1 558/2/1
f 561/1/1 562/2/1 563/3/1
f 561/1/1 564/4/1 562/2/1
f 565/1/1 566/2/1 567/3/1
f 565/1/1 568/4/1 566/2/1
f 569/1/1 570/2/1 571/3/1
f 569/1/1 572/4/1 570/2/1
f 573/1/1 574/2/1 575/3/1
f 573/1/1 576/4/1 574/2/1
f 577/1/1 578/2/1 579/3/1
f 577/1/1 580/4/1 578/2/1
f 581/1/1 582/2/1 583/3/1
f 581/1/1 584/4/1 582/2/1
f 585/1/1 586/2/1 587/3/1
f 585/1/1 588/4/1 586/2/1
f 589/1/1 590/2/1 591/3/1
f 589/1/1 592/4/1 590/2/1
f 593/1/1 594/2/1 595/3/1
f 593/1/1 596/4/1 594/2/1
f 597/1/1 598/2/1 599/3/1
f 597/1/1 600/4/1 598/2/1
f 601/1/1 602/2/1 603/3/1
f 601/1/1 604/4/1 602/2/1
f 605/1/1 606/2/1 607/3/1
f 605/1/1 608/4/1 606/2/1
f 609/1/1 610/2/1 611/3/1
f 609/1/1 612/4/1 610/2/1
f 613/1/1 614/2/1 615/3/1
f 613/1/1 616/4/1 614/2/1
f 617/1/1 618/2/1 619/3/1
f 617/1/1 620/4/1 618/2/1
f 621/1/1 622/2/1 623/3/1
f 621/1/1 624/4/1 622/2/1
f 625/1/1 626/2/1 627/3/1
f 625/1/1 628/4/1 626/2/1
f 629/1/1 630/2/1 631/3/1
f 629/1/1 632/4/1 630/2/1
f 633/1/1 634/2/1 635/3/1
f 633/1/1 636/4/1 634/2/1
f 637/1/1 638/2/1 639/3/1
f 637/1/1 640/4/1 638/2/1
f 641/1/1 642/2/1 643/3/1
f 641/1/1 644/4/1 642/2/1
f 645/1/1 646/2/1 647/3/1
f 645/1/1 648/4/1 646/2/1
f 649/1/1 650/2/1 651/3/1
f 649/1/1 652/4/1 650/2/1
f 653/1/1 654/2/1 655/3/1
f 653/1/1 656/4/1 654/2/1
f 657/1/1 658/2/1 659/3/1
f 657/1/1 660/4/1 658/2/1
f 661/1/1 662/2/1 663/3/1
f 661/1/1 664/4/1 662/2/1
f 665/1/1 666/2/1 667/3/1
f 665/1/1 668/4/1 666/2/1
f 669/1/1 670/2/1 671/3/1
f 669/1/1 672/4/1 670/2/1
f 673/1/1 674/2/1 675/3/1
f 673/1/1 676/4/1 674/2/1
f 677/1/1 678/2/1 679/3/1
f 677/1/1 680/4/1 678/2/1
f 681/1/1 682/2/1 683/3/1
f 681/1/1 684/4/1 682/2/1
f 685/1/1 686/2/1 687/3/1
f 685/1/1 688/4/1 686/2/1
