mtllib material.mtl
o Default
v -1.5 0.5 -4
v -1.5 1.5 -4
v -1.5 1.5 -3
v -1.5 0.5 -3
v -1.5 1.5 -4
v -1.5 2.5 -3
v -1.5 2.5 -4
v -1.5 1.5 -3
v -1.5 1.5 -3
v -0.5 2.5 -3
v -1.5 2.5 -3
v -0.5 1.5 -3
v -1.5 -7.5 -3
v -0.5 -6.5 -3
v -1.5 -6.5 -3
v -0.5 -7.5 -3
v -1.5 -6.5 -3
v -0.5 -5.5 -3
v -1.5 -5.5 -3
v -0.5 -6.5 -3
v -1.5 -5.5 -3
v -0.5 -4.5 -3
v -1.5 -4.5 -3
v -0.5 -5.5 -3
v -1.5 -4.5 -3
v -0.5 -3.5 -3
v -1.5 -3.5 -3
v -0.5 -4.5 -3
v -1.5 -3.5 -3
v -0.5 -2.5 -3
v -1.5 -2.5 -3
v -0.5 -3.5 -3
v -1.5 -2.5 -3
v -0.5 -1.5 -3
v -1.5 -1.5 -3
v -0.5 -2.5 -3
v -1.5 -1.5 -3
v -0.5 -0.5 -3
v -1.5 -0.5 -3
v -0.5 -1.5 -3
v -1.5 -0.5 -3
v -0.5 0.5 -3
v -1.5 0.5 -3
v -0.5 -0.5 -3
v -1.5 0.5 -3
v -0.5 1.5 -3
v -1.5 1.5 -3
v -0.5 0.5 -3
v -1.5 -8.5 -3
v -0.5 -7.5 -3
v -1.5 -7.5 -3
v -0.5 -8.5 -3
v -1.5 2.5 -3
v -0.5 3.5 -3
v -1.5 3.5 -3
v -0.5 2.5 -3
v -0.5 2.5 -3
v -0.5 3.5 -4
v -0.5 3.5 -3
v -0.5 2.5 -4
v -1.5 2.5 -4
v -1.5 3.5 -3
v -1.5 3.5 -4
v -1.5 2.5 -3
v -1.5 3.5 -3
v -0.5 3.5 -4
v -1.5 3.5 -4
v -0.5 3.5 -3
v -0.5 2.5 -4
v -1.5 3.5 -4
v -0.5 3.5 -4
v -1.5 2.5 -4
v -0.5 -8.5 -3
v -0.5 -7.5 -4
v -0.5 -7.5 -3
v -0.5 -8.5 -4
v -0.5 -8.5 -4
v -1.5 -7.5 -4
v -0.5 -7.5 -4
v -1.5 -8.5 -4
v -1.5 -8.5 -4
v -1.5 -7.5 -3
v -1.5 -7.5 -4
v -1.5 -8.5 -3
v -1.5 -7.5 -4
v -1.5 -6.5 -3
v -1.5 -6.5 -4
v -1.5 -7.5 -3
v -1.5 -6.5 -4
v -1.5 -5.5 -3
v -1.5 -5.5 -4
v -1.5 -6.5 -3
v -0.5 -7.5 -4
v -1.5 -6.5 -4
v -0.5 -6.5 -4
v -1.5 -7.5 -4
v -0.5 -6.5 -4
v -1.5 -5.5 -4
v -0.5 -5.5 -4
v -1.5 -6.5 -4
v -0.5 -5.5 -4
v -1.5 -4.5 -4
v -0.5 -4.5 -4
v -1.5 -5.5 -4
v -0.5 -4.5 -4
v -1.5 -3.5 -4
v -0.5 -3.5 -4
v -1.5 -4.5 -4
v -0.5 -3.5 -4
v -1.5 -2.5 -4
v -0.5 -2.5 -4
v -1.5 -3.5 -4
v -0.5 -2.5 -4
v -1.5 -1.5 -4
v -0.5 -1.5 -4
v -1.5 -2.5 -4
v -0.5 -1.5 -4
v -1.5 -0.5 -4
v -0.5 -0.5 -4
v -1.5 -1.5 -4
v -0.5 -0.5 -4
v -1.5 0.5 -4
v -0.5 0.5 -4
v -1.5 -0.5 -4
v -0.5 0.5 -4
v -1.5 1.5 -4
v -0.5 1.5 -4
v -1.5 0.5 -4
v -0.5 1.5 -4
v -1.5 2.5 -4
v -0.5 2.5 -4
v -1.5 1.5 -4
v -0.5 -7.5 -3
v -0.5 -6.5 -4
v -0.5 -6.5 -3
v -0.5 -7.5 -4
v -0.5 -6.5 -3
v -0.5 -5.5 -4
v -0.5 -5.5 -3
v -0.5 -6.5 -4
v -0.5 -5.5 -3
v -0.5 -4.5 -4
v -0.5 -4.5 -3
v -0.5 -5.5 -4
v -0.5 -4.5 -3
v -0.5 -3.5 -4
v -0.5 -3.5 -3
v -0.5 -4.5 -4
v -0.5 -3.5 -3
v -0.5 -2.5 -4
v -0.5 -2.5 -3
v -0.5 -3.5 -4
v -0.5 -2.5 -3
v -0.5 -1.5 -4
v -0.5 -1.5 -3
v -0.5 -2.5 -4
v -0.5 -1.5 -3
v -0.5 -0.5 -4
v -0.5 -0.5 -3
v -0.5 -1.5 -4
v -0.5 -0.5 -3
v -0.5 0.5 -4
v -0.5 0.5 -3
v -0.5 -0.5 -4
v -0.5 0.5 -3
v -0.5 1.5 -4
v -0.5 1.5 -3
v -0.5 0.5 -4
v -0.5 1.5 -3
v -0.5 2.5 -4
v -0.5 2.5 -3
v -0.5 1.5 -4
v -1.5 -5.5 -4
v -1.5 -4.5 -3
v -1.5 -4.5 -4
v -1.5 -5.5 -3
v -1.5 -4.5 -4
v -1.5 -3.5 -3
v -1.5 -3.5 -4
v -1.5 -4.5 -3
v -1.5 -3.5 -4
v -1.5 -2.5 -3
v -1.5 -2.5 -4
v -1.5 -3.5 -3
v -1.5 -2.5 -4
v -1.5 -1.5 -3
v -1.5 -1.5 -4
v -1.5 -2.5 -3
v -1.5 -1.5 -4
v -1.5 -0.5 -3
v -1.5 -0.5 -4
v -1.5 -1.5 -3
v -1.5 -0.5 -4
v -1.5 0.5 -3
v -1.5 0.5 -4
v -1.5 -0.5 -3
v -1.5 -8.5 -3
v -0.5 -8.5 -4
v -0.5 -8.5 -3
v -1.5 -8.5 -4
vt 0.6000000238418579 0.3333333432674408
vt 0.6499999761581421 0.25
vt 0.6000000238418579 0.25
vt 0.6499999761581421 0.3333333432674408
vt 0.6000000238418579 0.4166666567325592
vt 0.6499999761581421 0.4166666567325592
vt 0.6000000238418579 0.5
vt 0.6499999761581421 0.5
vn -1 0 0
vn 0 0 1
vn 1 0 0
vn 0 1 0
vn 0 0 -1
vn 0 -1 0
g Pole
usemtl 9
f 1/1/1 3/2/1 2/3/1
f 1/1/1 4/4/1 3/2/1
f 5/1/1 6/2/1 7/3/1
f 5/1/1 8/4/1 6/2/1
f 9/5/2 10/4/2 11/1/2
f 9/5/2 12/6/2 10/4/2
f 13/5/2 14/4/2 15/1/2
f 13/5/2 16/6/2 14/4/2
f 17/5/2 18/4/2 19/1/2
f 17/5/2 20/6/2 18/4/2
f 21/5/2 22/4/2 23/1/2
f 21/5/2 24/6/2 22/4/2
f 25/5/2 26/4/2 27/1/2
f 25/5/2 28/6/2 26/4/2
f 29/5/2 30/4/2 31/1/2
f 29/5/2 32/6/2 30/4/2
f 33/5/2 34/4/2 35/1/2
f 33/5/2 36/6/2 34/4/2
f 37/5/2 38/4/2 39/1/2
f 37/5/2 40/6/2 38/4/2
f 41/5/2 42/4/2 43/1/2
f 41/5/2 44/6/2 42/4/2
f 45/5/2 46/4/2 47/1/2
f 45/5/2 48/6/2 46/4/2
f 49/7/2 50/6/2 51/5/2
f 49/7/2 52/8/2 50/6/2
f 53/5/2 54/8/2 55/7/2
f 53/5/2 56/6/2 54/8/2
f 57/5/3 58/8/3 59/7/3
f 57/5/3 60/6/3 58/8/3
f 61/5/1 62/8/1 63/7/1
f 61/5/1 64/6/1 62/8/1
f 65/5/4 66/8/4 67/7/4
f 65/5/4 68/6/4 66/8/4
f 69/5/5 70/8/5 71/7/5
f 69/5/5 72/6/5 70/8/5
f 73/7/3 74/6/3 75/5/3
f 73/7/3 76/8/3 74/6/3
f 77/7/5 78/6/5 79/5/5
f 77/7/5 80/8/5 78/6/5
f 81/7/1 82/6/1 83/5/1
f 81/7/1 84/8/1 82/6/1
f 85/1/1 86/2/1 87/3/1
f 85/1/1 88/4/1 86/2/1
f 89/1/1 90/2/1 91/3/1
f 89/1/1 92/4/1 90/2/1
f 93/1/5 94/2/5 95/3/5
f 93/1/5 96/4/5 94/2/5
f 97/1/5 98/2/5 99/3/5
f 97/1/5 100/4/5 98/2/5
f 101/1/5 102/2/5 103/3/5
f 101/1/5 104/4/5 102/2/5
f 105/1/5 106/2/5 107/3/5
f 105/1/5 108/4/5 106/2/5
f 109/1/5 110/2/5 111/3/5
f 109/1/5 112/4/5 110/2/5
f 113/1/5 114/2/5 115/3/5
f 113/1/5 116/4/5 114/2/5
f 117/1/5 118/2/5 119/3/5
f 117/1/5 120/4/5 118/2/5
f 121/1/5 122/2/5 123/3/5
f 121/1/5 124/4/5 122/2/5
f 125/1/5 126/2/5 127/3/5
f 125/1/5 128/4/5 126/2/5
f 129/1/5 130/2/5 131/3/5
f 129/1/5 132/4/5 130/2/5
f 133/1/3 134/2/3 135/3/3
f 133/1/3 136/4/3 134/2/3
f 137/1/3 138/2/3 139/3/3
f 137/1/3 140/4/3 138/2/3
f 141/1/3 142/2/3 143/3/3
f 141/1/3 144/4/3 142/2/3
f 145/1/3 146/2/3 147/3/3
f 145/1/3 148/4/3 146/2/3
f 149/1/3 150/2/3 151/3/3
f 149/1/3 152/4/3 150/2/3
f 153/1/3 154/2/3 155/3/3
f 153/1/3 156/4/3 154/2/3
f 157/1/3 158/2/3 159/3/3
f 157/1/3 160/4/3 158/2/3
f 161/1/3 162/2/3 163/3/3
f 161/1/3 164/4/3 162/2/3
f 165/1/3 166/2/3 167/3/3
f 165/1/3 168/4/3 166/2/3
f 169/1/3 170/2/3 171/3/3
f 169/1/3 172/4/3 170/2/3
f 173/1/1 174/2/1 175/3/1
f 173/1/1 176/4/1 174/2/1
f 177/1/1 178/2/1 179/3/1
f 177/1/1 180/4/1 178/2/1
f 181/1/1 182/2/1 183/3/1
f 181/1/1 184/4/1 182/2/1
f 185/1/1 186/2/1 187/3/1
f 185/1/1 188/4/1 186/2/1
f 189/1/1 190/2/1 191/3/1
f 189/1/1 192/4/1 190/2/1
f 193/1/1 194/2/1 195/3/1
f 193/1/1 196/4/1 194/2/1
f 197/7/6 198/6/6 199/5/6
f 197/7/6 200/8/6 198/6/6
