mtllib material.mtl
o Default
v -19.5 -5.5 0
v -19.5 -0.5 0
v -14.5 -0.5 0
v -14.5 -5.5 0
v -14.5 -2 5
v -19.5 -2 0
v -14.5 -2 0
v -19.5 -2 5
v -9.5 -2 5
v -14.5 -2 0
v -9.5 -2 0
v -14.5 -2 5
v -4.5 -2 5
v -9.5 -2 0
v -4.5 -2 0
v -9.5 -2 5
v 0.5 -2 5
v -4.5 -2 0
v 0.5 -2 0
v -4.5 -2 5
v 0.5 -4 2
v 0.5 -0.5 0
v 0.5 -0.5 2
v 0.5 -4 0
v -4.5 -5.5 0
v -9.5 -0.5 0
v -4.5 -0.5 0
v -9.5 -5.5 0
v -9.5 -5.5 0
v -14.5 -0.5 0
v -9.5 -0.5 0
v -14.5 -5.5 0
v 0.5 -4 0
v -4.5 -0.5 0
v 0.5 -0.5 0
v -4.5 -5.5 0
v 0.5 -0.5 -3
v -4.5 -0.5 2
v 0.5 -0.5 2
v -4.5 -0.5 -3
v -4.5 -0.5 -3
v -9.5 -0.5 2
v -4.5 -0.5 2
v -9.5 -0.5 -3
v -9.5 -0.5 -3
v -14.5 -0.5 2
v -9.5 -0.5 2
v -14.5 -0.5 -3
v -14.5 -0.5 -3
v -19.5 -0.5 2
v -14.5 -0.5 2
v -19.5 -0.5 -3
v -14.5 -5.5 2
v -9.5 -0.5 2
v -14.5 -0.5 2
v -9.5 -5.5 2
v -9.5 -5.5 2
v -4.5 -0.5 2
v -9.5 -0.5 2
v -4.5 -5.5 2
v -4.5 -5.5 2
v 0.5 -0.5 2
v -4.5 -0.5 2
v 0.5 -4 2
v -19.5 -5.5 2
v -14.5 -0.5 2
v -19.5 -0.5 2
v -14.5 -5.5 2
vt 0.4000000059604645 1
vt 0.44999998807907104 1
vt 0.4000000059604645 0.9166666865348816
vt 0.44999998807907104 0.9166666865348816
vt 0.5 0.9166666865348816
vt 0.550000011920929 1
vt 0.5 1
vt 0.550000011920929 0.9166666865348816
vt 0.3499999940395355 0.9166666865348816
vt 0.30000001192092896 1
vt 0.3499999940395355 1
vt 0.30000001192092896 0.9166666865348816
vt 0.25 1
vt 0.25 0.9166666865348816
vn 0 0 -1
vn 0 -1 0
vn 1 0 0
vn 0 1 0
vn 0 0 1
g Prop
usemtl 13
f 2/1/1 3/2/1 1/3/1
f 3/2/1 4/4/1 1/3/1
f 5/5/2 6/6/2 7/7/2
f 5/5/2 8/8/2 6/6/2
f 9/5/2 10/6/2 11/7/2
f 9/5/2 12/8/2 10/6/2
f 13/5/2 14/6/2 15/7/2
f 13/5/2 16/8/2 14/6/2
f 17/5/2 18/6/2 19/7/2
f 17/5/2 20/8/2 18/6/2
f 21/8/3 22/7/3 23/6/3
f 21/8/3 24/5/3 22/7/3
f 25/9/1 26/10/1 27/11/1
f 25/9/1 28/12/1 26/10/1
f 29/12/1 30/13/1 31/10/1
f 29/12/1 32/14/1 30/13/1
f 33/9/1 34/10/1 35/11/1
f 33/9/1 36/12/1 34/10/1
f 37/5/4 38/6/4 39/7/4
f 37/5/4 40/8/4 38/6/4
f 41/5/4 42/6/4 43/7/4
f 41/5/4 44/8/4 42/6/4
f 45/5/4 46/6/4 47/7/4
f 45/5/4 48/8/4 46/6/4
f 49/5/4 50/6/4 51/7/4
f 49/5/4 52/8/4 50/6/4
f 53/12/5 54/11/5 55/10/5
f 53/12/5 56/9/5 54/11/5
f 57/5/5 58/6/5 59/7/5
f 57/5/5 60/8/5 58/6/5
f 61/12/5 62/11/5 63/10/5
f 61/12/5 64/9/5 62/11/5
f 65/3/5 66/2/5 67/1/5
f 65/3/5 68/4/5 66/2/5
