mtllib material.mtl
o Default
v 3 7.590169906616211 -7.5
v 3 9.826237678527832 -7.5
v 1 9.826237678527832 -6.5
v 1 7.590169906616211 -6.5
v 4.4046615244042187e-8 7.590169906616211 -3.5
v 3 7.590169906616211 -2.5
v 1 7.590169906616211 -1.5
v 2 7.590169906616211 -4.5
v 2 7.590169906616211 -4.5
v 5 7.590169906616211 -3.5
v 3 7.590169906616211 -2.5
v 4 7.590169906616211 -5.5
v 2 7.590169906616211 -4.5
v 3 7.590169906616211 -7.5
v 4 7.590169906616211 -5.5
v 1 7.590169906616211 -6.5
v -1 7.590169906616211 -5.5
v 1.4244294632703713e-8 7.590169906616211 -8.5
v 1 7.590169906616211 -6.5
v -2 7.590169906616211 -7.5
v -1 7.590169906616211 -5.5
v -4 7.590169906616211 -6.5
v -2 7.590169906616211 -7.5
v -3 7.590169906616211 -4.5
v 2 7.590169906616211 -4.5
v -1 7.590169906616211 -5.5
v 1 7.590169906616211 -6.5
v 4.4046615244042187e-8 7.590169906616211 -3.5
v 4.4046615244042187e-8 7.590169906616211 -3.5
v -3 7.590169906616211 -4.5
v -1 7.590169906616211 -5.5
v -2 7.590169906616211 -2.5
v -2 7.590169906616211 -2.5
v -5 7.590169906616211 -3.5
v -3 7.590169906616211 -4.5
v -4 7.590169906616211 -1.5
v 2 1 -4
v 2.5 2 -5
v 2 2 -4
v 2.5 1 -5
v 0.5 1 -5
v 1 2 -4
v 0.5 2 -5
v 1 1 -4
v 1 1 -4
v 2 2 -4
v 1 2 -4
v 2 1 -4
v 2 2 -6
v 2.5 2 -5
v 2 1 -6
v 2.5 1 -5
v 0.5 2 -5
v 1 2 -6
v 0.5 1 -5
v 1 1 -6
v 1 7.590169906616211 -1.5
v 2 9.826237678527832 0.5
v 1 9.826237678527832 -1.5
v 2 7.590169906616211 0.5
v 1 2 -6
v 2 2 -6
v 1 1 -6
v 2 1 -6
v 4 7.590169906616211 -0.5
v 3 9.826237678527832 -2.5
v 4 9.826237678527832 -0.5
v 3 7.590169906616211 -2.5
v 1 7.590169906616211 -6.5
v 2.2023307622021093e-8 9.826237678527832 -8.5
v 1 9.826237678527832 -6.5
v 1.4244294632703713e-8 7.590169906616211 -8.5
v 2 7.590169906616211 -4.5
v 1 9.826237678527832 -6.5
v 2 9.826237678527832 -4.5
v 1 7.590169906616211 -6.5
v 1 7.590169906616211 -1.5
v 4 7.590169906616211 -0.5
v 2 7.590169906616211 0.5
v 3 7.590169906616211 -2.5
v 4 7.590169906616211 -5.5
v 3 9.826237678527832 -7.5
v 4 9.826237678527832 -5.5
v 3 7.590169906616211 -7.5
v 5 7.590169906616211 -3.5
v 4 9.826237678527832 -5.5
v 5 9.826237678527832 -3.5
v 4 7.590169906616211 -5.5
v 3 7.590169906616211 -2.5
v 5 9.826237678527832 -3.5
v 3 9.826237678527832 -2.5
v 5 7.590169906616211 -3.5
v 1 0 -4
v 2 1 -4
v 1 1 -4
v 2 0 -4
v 0.5 0 -5
v 1 1 -4
v 0.5 1 -5
v 1 0 -4
v 0.5 2 -5
v 1 3.1180338859558105 -4
v 0.5 3.1180338859558105 -5
v 1 2 -4
v 0.5 3.1180338859558105 -5
v 1 4.236067771911621 -4
v 0.5 4.236067771911621 -5
v 1 3.1180338859558105 -4
v 0.5 4.236067771911621 -5
v 1 5.35410213470459 -4
v 0.5 5.35410213470459 -5
v 1 4.236067771911621 -4
v 0.5 5.35410213470459 -5
v 1 6.4721360206604 -4
v 0.5 6.4721360206604 -5
v 1 5.35410213470459 -4
v 2 2 -4
v 2.5 3.1180338859558105 -5
v 2 3.1180338859558105 -4
v 2.5 2 -5
v 2 3.1180338859558105 -4
v 2.5 4.236067771911621 -5
v 2 4.236067771911621 -4
v 2.5 3.1180338859558105 -5
v 2 4.236067771911621 -4
v 2.5 5.35410213470459 -5
v 2 5.35410213470459 -4
v 2.5 4.236067771911621 -5
v 1 2 -4
v 2 3 -4
v 1 3 -4
v 2 2 -4
v 1 3 -4
v 2 4 -4
v 1 4 -4
v 2 3 -4
v 1 4 -4
v 2 5 -4
v 1 5 -4
v 2 4 -4
v 1 5 -4
v 2 6.5 -4
v 1 6.5 -4
v 2 5 -4
v 2.5 2 -5
v 2 3.1180338859558105 -6
v 2.5 3.1180338859558105 -5
v 2 2 -6
v 2.5 3.1180338859558105 -5
v 2 4.236067771911621 -6
v 2.5 4.236067771911621 -5
v 2 3.1180338859558105 -6
v 2.5 4.236067771911621 -5
v 2 5.35410213470459 -6
v 2.5 5.35410213470459 -5
v 2 4.236067771911621 -6
v 2 2 -6
v 1 3 -6
v 2 3 -6
v 1 2 -6
v 2 3 -6
v 1 4 -6
v 2 4 -6
v 1 3 -6
v 2 4 -6
v 1 5 -6
v 2 5 -6
v 1 4 -6
v 1 2 -6
v 0.5 3.1180338859558105 -5
v 1 3.1180338859558105 -6
v 0.5 2 -5
v 1 3.1180338859558105 -6
v 0.5 4.236067771911621 -5
v 1 4.236067771911621 -6
v 0.5 3.1180338859558105 -5
v 1 4.236067771911621 -6
v 0.5 5.35410213470459 -5
v 1 5.35410213470459 -6
v 0.5 4.236067771911621 -5
v 2 5 -6
v 1 6.5 -6
v 2 6.5 -6
v 1 5 -6
v 1 5.35410213470459 -6
v 0.5 6.4721360206604 -5
v 1 6.4721360206604 -6
v 0.5 5.35410213470459 -5
v 2.5 5.35410213470459 -5
v 2 6.4721360206604 -6
v 2.5 6.4721360206604 -5
v 2 5.35410213470459 -6
v 2 5.35410213470459 -4
v 2.5 6.4721360206604 -5
v 2 6.4721360206604 -4
v 2.5 5.35410213470459 -5
v 1 1 -6
v 2 1 -6
v 1 0 -6
v 2 0 -6
v 0.5 1 -5
v 1 1 -6
v 0.5 0 -5
v 1 0 -6
v 2 1 -6
v 2.5 1 -5
v 2 0 -6
v 2.5 0 -5
v 2 0 -4
v 2.5 1 -5
v 2 1 -4
v 2.5 0 -5
v 2 6.4721360206604 -4
v 2.5 7.590169906616211 -5
v 2 7.590169906616211 -4
v 2.5 6.4721360206604 -5
v 1 6.4721360206604 -6
v 0.5 7.590169906616211 -5
v 1 7.590169906616211 -6
v 0.5 6.4721360206604 -5
v 2 6.5 -6
v 1 8 -6
v 2 8 -6
v 1 6.5 -6
v 2.5 6.4721360206604 -5
v 2 7.590169906616211 -6
v 2.5 7.590169906616211 -5
v 2 6.4721360206604 -6
v 1 6.5 -4
v 2 8 -4
v 1 8 -4
v 2 6.5 -4
v 0 6.4721360206604 -3.5
v 1 7.590169906616211 -4
v 4.4046615244042187e-8 7.590169906616211 -3.5
v 1 6.4721360206604 -4
v -1 6.4721360206604 -3
v 4.4046615244042187e-8 7.590169906616211 -3.5
v -2 7.590169906616211 -2.5
v 0 6.4721360206604 -3.5
v 0.5 6.4721360206604 -5
v -0.5 7.590169906616211 -4.5
v 0.5 7.590169906616211 -5
v -0.5 6.4721360206604 -4.5
v -0.5 6.4721360206604 -4.5
v -2.5 7.590169906616211 -3.5
v -0.5 7.590169906616211 -4.5
v -1.5 6.4721360206604 -4
v 1 6.4721360206604 -4
v -0.5 6.4721360206604 -4.5
v 0.5 6.4721360206604 -5
v 0 6.4721360206604 -3.5
v 0 6.4721360206604 -3.5
v -1.5 6.4721360206604 -4
v -0.5 6.4721360206604 -4.5
v -1 6.4721360206604 -3
v -1 6.4721360206604 -3
v -2.5 7.7082037925720215 -3.5
v -1.5 6.4721360206604 -4
v -2 7.7082037925720215 -2.5
v -2 7.590169906616211 -2.5
v 0 9.826237678527832 -3.5
v -2 9.826237678527832 -2.5
v 4.4046615244042187e-8 7.590169906616211 -3.5
v 4.4046615244042187e-8 7.590169906616211 -3.5
v 1 9.826237678527832 -1.5
v 0 9.826237678527832 -3.5
v 1 7.590169906616211 -1.5
v -4 7.590169906616211 -1.5
v -2 9.826237678527832 -2.5
v -4 9.826237678527832 -1.5
v -2 7.590169906616211 -2.5
v -5 7.590169906616211 -3.5
v -4 9.826237678527832 -1.5
v -5 9.826237678527832 -3.5
v -4 7.590169906616211 -1.5
v -3 7.590169906616211 -4.5
v -5 9.826237678527832 -3.5
v -3 9.826237678527832 -4.5
v -5 7.590169906616211 -3.5
v -4 7.590169906616211 -6.5
v -3 9.826237678527832 -4.5
v -4 9.826237678527832 -6.5
v -3 7.590169906616211 -4.5
v -2 7.590169906616211 -7.5
v -4 9.826237678527832 -6.5
v -2 9.826237678527832 -7.5
v -4 7.590169906616211 -6.5
v 1.4244294632703713e-8 7.590169906616211 -8.5
v -2 9.826237678527832 -7.5
v 2.2023307622021093e-8 9.826237678527832 -8.5
v -2 7.590169906616211 -7.5
v 2 7.590169906616211 0.5
v 4 9.826237678527832 -0.5
v 2 9.826237678527832 0.5
v 4 7.590169906616211 -0.5
v 2 7.590169906616211 -4.5
v 3 9.826237678527832 -2.5
v 2 9.826237678527832 -4.5
v 3 7.590169906616211 -2.5
v 2 9.826237678527832 0.5
v 3 9.826237678527832 -2.5
v 1 9.826237678527832 -1.5
v 4 9.826237678527832 -0.5
v 1 9.826237678527832 -1.5
v 2 9.826237678527832 -4.5
v 0 9.826237678527832 -3.5
v 3 9.826237678527832 -2.5
v 3 9.826237678527832 -2.5
v 4 9.826237678527832 -5.5
v 2 9.826237678527832 -4.5
v 5 9.826237678527832 -3.5
v -2 9.826237678527832 -2.5
v -1 9.826237678527832 -5.5
v -3 9.826237678527832 -4.5
v 0 9.826237678527832 -3.5
v -4 9.826237678527832 -1.5
v -3 9.826237678527832 -4.5
v -5 9.826237678527832 -3.5
v -2 9.826237678527832 -2.5
v 0 9.826237678527832 -3.5
v 1 9.826237678527832 -6.5
v -1 9.826237678527832 -5.5
v 2 9.826237678527832 -4.5
v 2 9.826237678527832 -4.5
v 3 9.826237678527832 -7.5
v 1 9.826237678527832 -6.5
v 4 9.826237678527832 -5.5
v 2.2023307622021093e-8 9.826237678527832 -8.5
v -1 9.826237678527832 -5.5
v 1 9.826237678527832 -6.5
v -2 9.826237678527832 -7.5
v -2 9.826237678527832 -7.5
v -3 9.826237678527832 -4.5
v -1 9.826237678527832 -5.5
v -4 9.826237678527832 -6.5
v -3 9.826237678527832 -4.5
v -2 12.062305450439453 -2.5
v -3 12.062305450439453 -4.5
v -2 9.826237678527832 -2.5
v 0 9.826237678527832 -3.5
v 1 12.062305450439453 -1.5
v 7.341102836733171e-9 12.062305450439453 -3.5
v 1 9.826237678527832 -1.5
v -2 9.826237678527832 -2.5
v 7.341102836733171e-9 12.062305450439453 -3.5
v -2 12.062305450439453 -2.5
v 0 9.826237678527832 -3.5
v 1 9.826237678527832 -1.5
v 3 12.062305450439453 -2.5
v 1 12.062305450439453 -1.5
v 3 9.826237678527832 -2.5
v 3 9.826237678527832 -2.5
v 2 12.062305450439453 -4.5
v 3 12.062305450439453 -2.5
v 2 9.826237678527832 -4.5
v 2 9.826237678527832 -4.5
v 4 12.062305450439453 -5.5
v 2 12.062305450439453 -4.5
v 4 9.826237678527832 -5.5
v 4 9.826237678527832 -5.5
v 3 12.062305450439453 -7.5
v 4 12.062305450439453 -5.5
v 3 9.826237678527832 -7.5
v 3 9.826237678527832 -7.5
v 1 12.062305450439453 -6.5
v 3 12.062305450439453 -7.5
v 1 9.826237678527832 -6.5
v 1 9.826237678527832 -6.5
v -1 12.062305450439453 -5.5
v 1 12.062305450439453 -6.5
v -1 9.826237678527832 -5.5
v -1 9.826237678527832 -5.5
v -3 12.062305450439453 -4.5
v -1 12.062305450439453 -5.5
v -3 9.826237678527832 -4.5
v -3 12.062305450439453 -4.5
v 7.341102836733171e-9 12.062305450439453 -3.5
v -1 12.062305450439453 -5.5
v -2 12.062305450439453 -2.5
v 7.341102836733171e-9 12.062305450439453 -3.5
v 3 12.062305450439453 -2.5
v 2 12.062305450439453 -4.5
v 1 12.062305450439453 -1.5
v -1 12.062305450439453 -5.5
v 2 12.062305450439453 -4.5
v 1 12.062305450439453 -6.5
v 7.341102836733171e-9 12.062305450439453 -3.5
v 4 12.062305450439453 -5.5
v 1 12.062305450439453 -6.5
v 2 12.062305450439453 -4.5
v 3 12.062305450439453 -7.5
vt 0.2083333283662796 0.6666666865348816
vt 0.1666666716337204 0.7333333492279053
vt 0.2083333283662796 0.7333333492279053
vt 0.1666666716337204 0.6666666865348816
vt 0.25 0.6666666865348816
vt 0.2083333283662796 0.6000000238418579
vt 0.25 0.6000000238418579
vt 0.375 0.3333333432674408
vt 0.3333333432674408 0.4000000059604645
vt 0.375 0.4000000059604645
vt 0.3333333432674408 0.3333333432674408
vt 0.375 0.46666666865348816
vt 0.3333333432674408 0.46666666865348816
vt 0.2916666567325592 0.6666666865348816
vt 0.25 0.7333333492279053
vt 0.2916666567325592 0.7333333492279053
vt 0.1666666716337204 0.800000011920929
vt 0.2083333283662796 0.800000011920929
vn -0.4472136 0 -0.89442719
vn 0 -1 0
vn 0.89442719 0 0.4472136
vn -0.89442719 0 0.4472136
vn 0 0 1
vn 0.89442719 0 -0.4472136
vn -0.89442719 0 -0.4472136
vn 0 0 -1
vn 0.89442719 0 -0.44721359
vn 0.4472136 0 0.89442719
vn 0.44721361 -2e-8 0.89442718
vn 0.44721359 -1e-8 0.89442719
vn 0.4472136 -2e-8 0.89442719
vn -0.66333334 -0.67081004 0.33166667
vn 0.44721359 1e-8 0.89442719
vn -0.89442719 -2e-8 0.4472136
vn -0.8944272 0 0.44721358
vn -0.44721359 0 -0.89442719
vn 0 1 0
vn -0.89442719 0 0.44721359
vn 0.44721359 0 0.89442719
g Tree
usemtl 6
f 1/1/1 3/2/1 2/3/1
f 1/1/1 4/4/1 3/2/1
usemtl 2
f 5/5/2 6/6/2 7/7/2
f 5/5/2 8/1/2 6/6/2
f 9/5/2 10/6/2 11/7/2
f 9/5/2 12/1/2 10/6/2
f 13/5/2 14/6/2 15/7/2
f 13/5/2 16/1/2 14/6/2
f 17/5/2 18/6/2 19/7/2
f 17/5/2 20/1/2 18/6/2
f 21/5/2 22/6/2 23/7/2
f 21/5/2 24/1/2 22/6/2
f 25/5/2 26/6/2 27/7/2
f 25/5/2 28/1/2 26/6/2
f 29/5/2 30/6/2 31/7/2
f 29/5/2 32/1/2 30/6/2
f 33/5/2 34/6/2 35/7/2
f 33/5/2 36/1/2 34/6/2
f 37/8/3 38/9/3 39/10/3
f 37/8/3 40/11/3 38/9/3
f 41/10/4 42/11/4 43/8/4
f 41/10/4 44/9/4 42/11/4
f 45/8/5 46/9/5 47/10/5
f 45/8/5 48/11/5 46/9/5
f 49/10/6 50/9/6 51/8/6
f 50/9/6 52/11/6 51/8/6
f 53/8/7 54/11/7 55/10/7
f 54/11/7 56/9/7 55/10/7
f 57/5/4 58/6/4 59/7/4
f 57/5/4 60/1/4 58/6/4
f 61/10/8 62/9/8 63/8/8
f 62/9/8 64/11/8 63/8/8
f 65/5/6 66/6/6 67/7/6
f 65/5/6 68/1/6 66/6/6
f 69/7/9 70/1/9 71/5/9
f 69/7/9 72/6/9 70/1/9
f 73/5/6 74/6/6 75/7/6
f 73/5/6 76/1/6 74/6/6
f 77/5/2 78/6/2 79/7/2
f 77/5/2 80/1/2 78/6/2
f 81/5/6 82/6/6 83/7/6
f 81/5/6 84/1/6 82/6/6
f 85/5/6 86/6/6 87/7/6
f 85/5/6 88/1/6 86/6/6
f 89/5/10 90/6/10 91/7/10
f 89/5/10 92/1/10 90/6/10
f 93/10/5 94/11/5 95/8/5
f 93/10/5 96/9/5 94/11/5
f 97/8/4 98/9/4 99/10/4
f 97/8/4 100/11/4 98/9/4
f 101/12/4 102/9/4 103/10/4
f 101/12/4 104/13/4 102/9/4
f 105/10/4 106/13/4 107/12/4
f 105/10/4 108/9/4 106/13/4
f 109/12/4 110/9/4 111/10/4
f 109/12/4 112/13/4 110/9/4
f 113/10/4 114/13/4 115/12/4
f 113/10/4 116/9/4 114/13/4
f 117/10/3 118/13/3 119/12/3
f 117/10/3 120/9/3 118/13/3
f 121/12/3 122/9/3 123/10/3
f 121/12/3 124/13/3 122/9/3
f 125/10/3 126/13/3 127/12/3
f 125/10/3 128/9/3 126/13/3
f 129/10/5 130/11/5 131/8/5
f 129/10/5 132/9/5 130/11/5
f 133/8/5 134/9/5 135/10/5
f 133/8/5 136/11/5 134/9/5
f 137/10/5 138/11/5 139/8/5
f 137/10/5 140/9/5 138/11/5
f 141/8/5 142/9/5 143/10/5
f 141/8/5 144/11/5 142/9/5
f 145/10/6 146/11/6 147/8/6
f 145/10/6 148/9/6 146/11/6
f 149/10/6 150/11/6 151/8/6
f 149/10/6 152/9/6 150/11/6
f 153/10/6 154/11/6 155/8/6
f 153/10/6 156/9/6 154/11/6
f 157/8/8 158/9/8 159/10/8
f 157/8/8 160/11/8 158/9/8
f 161/8/8 162/9/8 163/10/8
f 161/8/8 164/11/8 162/9/8
f 165/8/8 166/9/8 167/10/8
f 165/8/8 168/11/8 166/9/8
f 169/8/7 170/9/7 171/10/7
f 169/8/7 172/11/7 170/9/7
f 173/8/7 174/9/7 175/10/7
f 173/8/7 176/11/7 174/9/7
f 177/8/7 178/9/7 179/10/7
f 177/8/7 180/11/7 178/9/7
f 181/8/8 182/9/8 183/10/8
f 181/8/8 184/11/8 182/9/8
f 185/8/7 186/9/7 187/10/7
f 185/8/7 188/11/7 186/9/7
f 189/8/6 190/9/6 191/10/6
f 189/8/6 192/11/6 190/9/6
f 193/10/3 194/11/3 195/8/3
f 193/10/3 196/9/3 194/11/3
f 197/8/8 198/11/8 199/10/8
f 198/11/8 200/9/8 199/10/8
f 201/10/7 202/9/7 203/8/7
f 202/9/7 204/11/7 203/8/7
f 205/8/6 206/11/6 207/10/6
f 206/11/6 208/9/6 207/10/6
f 209/10/3 210/11/3 211/8/3
f 209/10/3 212/9/3 210/11/3
f 213/12/3 214/9/3 215/10/3
f 213/12/3 216/13/3 214/9/3
f 217/12/7 218/9/7 219/10/7
f 217/12/7 220/13/7 218/9/7
f 221/12/8 222/9/8 223/10/8
f 221/12/8 224/13/8 222/9/8
f 225/12/6 226/9/6 227/10/6
f 225/12/6 228/13/6 226/9/6
f 229/10/5 230/11/5 231/8/5
f 229/10/5 232/9/5 230/11/5
f 233/10/11 234/11/11 235/8/11
f 233/10/10 236/9/10 234/11/10
f 237/10/12 238/11/12 239/8/12
f 237/10/13 240/9/13 238/11/13
f 241/10/1 242/11/1 243/8/1
f 241/10/1 244/9/1 242/11/1
f 245/10/1 246/11/1 247/8/1
f 245/10/1 248/9/1 246/11/1
f 249/10/2 250/11/2 251/8/2
f 249/10/2 252/9/2 250/11/2
f 253/10/2 254/11/2 255/8/2
f 253/10/2 256/9/2 254/11/2
f 257/10/14 258/11/14 259/8/14
f 257/10/14 260/9/14 258/11/14
f 261/5/10 262/6/10 263/7/10
f 261/5/15 264/1/15 262/6/15
f 265/5/16 266/6/16 267/7/16
f 265/5/17 268/1/17 266/6/17
f 269/5/10 270/6/10 271/7/10
f 269/5/10 272/1/10 270/6/10
f 273/5/4 274/6/4 275/7/4
f 273/5/4 276/1/4 274/6/4
f 277/5/1 278/6/1 279/7/1
f 277/5/1 280/1/1 278/6/1
f 281/5/4 282/6/4 283/7/4
f 281/5/4 284/1/4 282/6/4
f 285/7/1 286/1/1 287/5/1
f 285/7/1 288/6/1 286/1/1
f 289/7/18 290/1/18 291/5/18
f 289/7/18 292/6/18 290/1/18
usemtl 4
f 293/14/10 294/15/10 295/16/10
f 293/14/10 296/5/10 294/15/10
usemtl 6
f 297/1/4 298/2/4 299/3/4
f 297/1/4 300/4/4 298/2/4
f 301/1/19 302/2/19 303/3/19
f 301/1/19 304/4/19 302/2/19
f 305/1/19 306/2/19 307/3/19
f 305/1/19 308/4/19 306/2/19
f 309/1/19 310/2/19 311/3/19
f 309/1/19 312/4/19 310/2/19
f 313/1/19 314/2/19 315/3/19
f 313/1/19 316/4/19 314/2/19
f 317/1/19 318/2/19 319/3/19
f 317/1/19 320/4/19 318/2/19
f 321/1/19 322/2/19 323/3/19
f 321/1/19 324/4/19 322/2/19
f 325/1/19 326/2/19 327/3/19
f 325/1/19 328/4/19 326/2/19
f 329/1/19 330/2/19 331/3/19
f 329/1/19 332/4/19 330/2/19
f 333/1/19 334/2/19 335/3/19
f 333/1/19 336/4/19 334/2/19
f 337/3/4 338/17/4 339/18/4
f 337/3/4 340/2/4 338/17/4
f 341/3/20 342/17/20 343/18/20
f 341/3/4 344/2/4 342/17/4
f 345/3/21 346/17/21 347/18/21
f 345/3/10 348/2/10 346/17/10
f 349/3/10 350/17/10 351/18/10
f 349/3/10 352/2/10 350/17/10
f 353/3/6 354/17/6 355/18/6
f 353/3/6 356/2/6 354/17/6
f 357/3/10 358/17/10 359/18/10
f 357/3/10 360/2/10 358/17/10
f 361/3/6 362/17/6 363/18/6
f 361/3/6 364/2/6 362/17/6
f 365/3/1 366/17/1 367/18/1
f 365/3/1 368/2/1 366/17/1
f 369/3/1 370/17/1 371/18/1
f 369/3/1 372/2/1 370/17/1
f 373/3/1 374/17/1 375/18/1
f 373/3/1 376/2/1 374/17/1
f 377/3/19 378/17/19 379/18/19
f 377/3/19 380/2/19 378/17/19
f 381/3/19 382/17/19 383/18/19
f 381/3/19 384/2/19 382/17/19
f 385/3/19 386/17/19 387/18/19
f 385/3/19 388/2/19 386/17/19
f 389/3/19 390/17/19 391/18/19
f 389/3/19 392/2/19 390/17/19
