mtllib material.mtl
o Default
v 4 12.062305450439453 -5.5
v 2 12.062305450439453 -4.5
v 1 12.062305450439453 -6.5
v 3 12.062305450439453 -7.5
v -1 12.062305450439453 -5.5
v 2 12.062305450439453 -4.5
v 1 12.062305450439453 -6.5
v 0 12.062305450439453 -3.5
v 0 12.062305450439453 -3.5
v 3 12.062305450439453 -2.5
v 2 12.062305450439453 -4.5
v 1 12.062305450439453 -1.5
v -3 12.062305450439453 -4.5
v 0 12.062305450439453 -3.5
v -1 12.062305450439453 -5.5
v -2 12.062305450439453 -2.5
v -1 9.826237678527832 -5.5
v -3 12.062305450439453 -4.5
v -1 12.062305450439453 -5.5
v -3 9.826237678527832 -4.5
v 1 9.826237678527832 -6.5
v -1 12.062305450439453 -5.5
v 1 12.062305450439453 -6.5
v -1 9.826237678527832 -5.5
v 3 9.826237678527832 -7.5
v 1 12.062305450439453 -6.5
v 3 12.062305450439453 -7.5
v 1 9.826237678527832 -6.5
v 4 9.826237678527832 -5.5
v 3 12.062305450439453 -7.5
v 4 12.062305450439453 -5.5
v 3 9.826237678527832 -7.5
v 2 9.826237678527832 -4.5
v 4 12.062305450439453 -5.5
v 2 12.062305450439453 -4.5
v 4 9.826237678527832 -5.5
v 3 9.826237678527832 -2.5
v 2 12.062305450439453 -4.5
v 3 12.062305450439453 -2.5
v 2 9.826237678527832 -4.5
v 1 9.826237678527832 -1.5
v 3 12.062305450439453 -2.5
v 1 12.062305450439453 -1.5
v 3 9.826237678527832 -2.5
v -2 9.826237678527832 -2.5
v 0 12.062305450439453 -3.5
v -2 12.062305450439453 -2.5
v 0 9.826237678527832 -3.5
v 0 9.826237678527832 -3.5
v 1 12.062305450439453 -1.5
v 0 12.062305450439453 -3.5
v 1 9.826237678527832 -1.5
v -3 9.826237678527832 -4.5
v -2 12.062305450439453 -2.5
v -3 12.062305450439453 -4.5
v -2 9.826237678527832 -2.5
v -2 9.826237678527832 -7.5
v -3 9.826237678527832 -4.5
v -1 9.826237678527832 -5.5
v -4 9.826237678527832 -6.5
v 0 9.826237678527832 -8.5
v -1 9.826237678527832 -5.5
v 1 9.826237678527832 -6.5
v -2 9.826237678527832 -7.5
v 2 9.826237678527832 -4.5
v 3 9.826237678527832 -7.5
v 1 9.826237678527832 -6.5
v 4 9.826237678527832 -5.5
v 0 9.826237678527832 -3.5
v 1 9.826237678527832 -6.5
v -1 9.826237678527832 -5.5
v 2 9.826237678527832 -4.5
v -4 9.826237678527832 -1.5
v -3 9.826237678527832 -4.5
v -5 9.826237678527832 -3.5
v -2 9.826237678527832 -2.5
v -2 9.826237678527832 -2.5
v -1 9.826237678527832 -5.5
v -3 9.826237678527832 -4.5
v 0 9.826237678527832 -3.5
v 3 9.826237678527832 -2.5
v 4 9.826237678527832 -5.5
v 2 9.826237678527832 -4.5
v 5 9.826237678527832 -3.5
v 1 9.826237678527832 -1.5
v 2 9.826237678527832 -4.5
v 0 9.826237678527832 -3.5
v 3 9.826237678527832 -2.5
v 2 9.826237678527832 0.5
v 3 9.826237678527832 -2.5
v 1 9.826237678527832 -1.5
v 4 9.826237678527832 -0.5
v 2 7.590169906616211 -4.5
v 3 9.826237678527832 -2.5
v 2 9.826237678527832 -4.5
v 3 7.590169906616211 -2.5
v 2 7.590169906616211 0.5
v 4 9.826237678527832 -0.5
v 2 9.826237678527832 0.5
v 4 7.590169906616211 -0.4999999701976776
v 1.4682205673466342e-8 7.590169906616211 -8.5
v -2 9.826237678527832 -7.5
v 0 9.826237678527832 -8.5
v -2 7.590169906616211 -7.5
v -2 7.590169906616211 -7.5
v -4 9.826237678527832 -6.5
v -2 9.826237678527832 -7.5
v -4 7.590169906616211 -6.5
v -4 7.590169906616211 -6.5
v -3 9.826237678527832 -4.5
v -4 9.826237678527832 -6.5
v -3 7.590169906616211 -4.5
v -3 7.590169906616211 -4.5
v -5 9.826237678527832 -3.5
v -3 9.826237678527832 -4.5
v -5 7.590169906616211 -3.5
v -5 7.590169906616211 -3.5
v -4 9.826237678527832 -1.5
v -5 9.826237678527832 -3.5
v -4 7.590169906616211 -1.5
v -4 7.590169906616211 -1.5
v -2 9.826237678527832 -2.5
v -4 9.826237678527832 -1.5
v -2 7.590169906616211 -2.5
v 7.341102836733171e-9 7.590169906616211 -3.5
v 1 9.826237678527832 -1.5
v 0 9.826237678527832 -3.5
v 1 7.590169906616211 -1.5
v -2 7.590169906616211 -2.5
v 0 9.826237678527832 -3.5
v -2 9.826237678527832 -2.5
v 7.341102836733171e-9 7.590169906616211 -3.5
v -1 6.4721360206604 -3
v -2.5 7.7082037925720215 -3.5
v -1.5 6.4721360206604 -4
v -2 7.7082037925720215 -2.5
v 0 6.4721360206604 -3.5
v -1.5 6.4721360206604 -4
v -0.5 6.4721360206604 -4.5
v -1 6.4721360206604 -3
v 1 6.4721360206604 -4
v -0.5 6.4721360206604 -4.5
v 0.5 6.4721360206604 -5
v 0 6.4721360206604 -3.5
v -0.5 6.4721360206604 -4.5
v -2.5 7.590169906616211 -3.5
v -0.5 7.590169906616211 -4.5
v -1.5 6.4721360206604 -4
v 0.5 6.4721360206604 -5
v -0.5 7.590169906616211 -4.5
v 0.5 7.590169906616211 -5
v -0.5 6.4721360206604 -4.5
v -1 6.4721360206604 -3
v 7.341102836733171e-9 7.590169906616211 -3.5
v -2 7.590169906616211 -2.5
v 0 6.4721360206604 -3.5
v 0 6.4721360206604 -3.5
v 1 7.590169906616211 -4
v 7.341102836733171e-9 7.590169906616211 -3.5
v 1 6.4721360206604 -4
v 1 6.5 -4
v 2 8 -4
v 1 8 -4
v 2 6.5 -4
v 2.5 6.4721360206604 -5
v 2 7.590169906616211 -6
v 2.5 7.590169906616211 -5
v 2 6.4721360206604 -6
v 2 6.5 -6
v 1 8 -6
v 2 8 -6
v 1 6.5 -6
v 1 6.4721360206604 -6
v 0.5 7.590169906616211 -5
v 1 7.590169906616211 -6
v 0.5 6.4721360206604 -5
v 2 6.4721360206604 -4
v 2.5 7.590169906616211 -5
v 2 7.590169906616211 -4
v 2.5 6.4721360206604 -5
v 2 0 -4
v 2.5 1 -5
v 2 1 -4
v 2.5 0 -5
v 2 1 -6
v 2.5 1 -5
v 2 0 -6
v 2.5 0 -5
v 0.5 1 -5
v 1 1 -6
v 0.5 0 -5
v 1 0 -6
v 1 1 -6
v 2 1 -6
v 1 0 -6
v 2 0 -6
v 2 5.35410213470459 -4
v 2.5 6.4721360206604 -5
v 2 6.4721360206604 -4
v 2.5 5.35410213470459 -5
v 2.5 5.35410213470459 -5
v 2 6.4721360206604 -6
v 2.5 6.4721360206604 -5
v 2 5.35410213470459 -6
v 1 5.35410213470459 -6
v 0.5 6.4721360206604 -5
v 1 6.4721360206604 -6
v 0.5 5.35410213470459 -5
v 2 5 -6
v 1 6.5 -6
v 2 6.5 -6
v 1 5 -6
v 1 4.236067771911621 -6
v 0.5 5.35410213470459 -5
v 1 5.35410213470459 -6
v 0.5 4.236067771911621 -5
v 1 3.1180338859558105 -6
v 0.5 4.236067771911621 -5
v 1 4.236067771911621 -6
v 0.5 3.1180338859558105 -5
v 1 2 -6
v 0.5 3.1180338859558105 -5
v 1 3.1180338859558105 -6
v 0.5 2 -5
v 2 4 -6
v 1 5 -6
v 2 5 -6
v 1 4 -6
v 2 3 -6
v 1 4 -6
v 2 4 -6
v 1 3 -6
v 2 2 -6
v 1 3 -6
v 2 3 -6
v 1 2 -6
v 2.5 4.236067771911621 -5
v 2 5.35410213470459 -6
v 2.5 5.35410213470459 -5
v 2 4.236067771911621 -6
v 2.5 3.1180338859558105 -5
v 2 4.236067771911621 -6
v 2.5 4.236067771911621 -5
v 2 3.1180338859558105 -6
v 2.5 2 -5
v 2 3.1180338859558105 -6
v 2.5 3.1180338859558105 -5
v 2 2 -6
v 1 5 -4
v 2 6.5 -4
v 1 6.5 -4
v 2 5 -4
v 1 4 -4
v 2 5 -4
v 1 5 -4
v 2 4 -4
v 1 3 -4
v 2 4 -4
v 1 4 -4
v 2 3 -4
v 1 2 -4
v 2 3 -4
v 1 3 -4
v 2 2 -4
v 2 4.236067771911621 -4
v 2.5 5.35410213470459 -5
v 2 5.35410213470459 -4
v 2.5 4.236067771911621 -5
v 2 3.1180338859558105 -4
v 2.5 4.236067771911621 -5
v 2 4.236067771911621 -4
v 2.5 3.1180338859558105 -5
v 2 2 -4
v 2.5 3.1180338859558105 -5
v 2 3.1180338859558105 -4
v 2.5 2 -5
v 0.5 5.35410213470459 -5
v 1 6.4721360206604 -4
v 0.5 6.4721360206604 -5
v 1 5.35410213470459 -4
v 0.5 4.236067771911621 -5
v 1 5.35410213470459 -4
v 0.5 5.35410213470459 -5
v 1 4.236067771911621 -4
v 0.5 3.1180338859558105 -5
v 1 4.236067771911621 -4
v 0.5 4.236067771911621 -5
v 1 3.1180338859558105 -4
v 0.5 2 -5
v 1 3.1180338859558105 -4
v 0.5 3.1180338859558105 -5
v 1 2 -4
v 0.5 0 -5
v 1 1 -4
v 0.5 1 -5
v 1 0 -4
v 1 0 -4
v 2 1 -4
v 1 1 -4
v 2 0 -4
v 3 7.590169906616211 -2.5
v 5 9.826237678527832 -3.5
v 3 9.826237678527832 -2.5
v 5 7.590169906616211 -3.5
v 5 7.590169906616211 -3.5
v 4 9.826237678527832 -5.5
v 5 9.826237678527832 -3.5
v 4 7.590169906616211 -5.5
v 4 7.590169906616211 -5.5
v 3 9.826237678527832 -7.5
v 4 9.826237678527832 -5.5
v 3 7.590169906616211 -7.5
v 1 7.590169906616211 -1.5
v 4 7.590169906616211 -0.4999999701976776
v 2 7.590169906616211 0.5
v 3 7.590169906616211 -2.5
v 2 7.590169906616211 -4.5
v 1 9.826237678527832 -6.5
v 2 9.826237678527832 -4.5
v 1 7.590169906616211 -6.5
v 1 7.590169906616211 -6.5
v 0 9.826237678527832 -8.5
v 1 9.826237678527832 -6.5
v 1.4682205673466342e-8 7.590169906616211 -8.5
v 4 7.590169906616211 -0.4999999701976776
v 3 9.826237678527832 -2.5
v 4 9.826237678527832 -0.5
v 3 7.590169906616211 -2.5
v 1 2 -6
v 2 2 -6
v 1 1 -6
v 2 1 -6
v 1 7.590169906616211 -1.5
v 2 9.826237678527832 0.5
v 1 9.826237678527832 -1.5
v 2 7.590169906616211 0.5
v 0.5 2 -5
v 1 2 -6
v 0.5 1 -5
v 1 1 -6
v 2 2 -6
v 2.5 2 -5
v 2 1 -6
v 2.5 1 -5
v 1 1 -4
v 2 2 -4
v 1 2 -4
v 2 1 -4
v 0.5 1 -5
v 1 2 -4
v 0.5 2 -5
v 1 1 -4
v 2 1 -4
v 2.5 2 -5
v 2 2 -4
v 2.5 1 -5
v -2 7.590169906616211 -2.5
v -5 7.590169906616211 -3.5
v -3 7.590169906616211 -4.5
v -4 7.590169906616211 -1.5
v 7.341102836733171e-9 7.590169906616211 -3.5
v -3 7.590169906616211 -4.5
v -1 7.590169906616211 -5.5
v -2 7.590169906616211 -2.5
v 2 7.590169906616211 -4.5
v -1 7.590169906616211 -5.5
v 1 7.590169906616211 -6.5
v 7.341102836733171e-9 7.590169906616211 -3.5
v -1 7.590169906616211 -5.5
v -4 7.590169906616211 -6.5
v -2 7.590169906616211 -7.5
v -3 7.590169906616211 -4.5
v -1 7.590169906616211 -5.5
v 1.4682205673466342e-8 7.590169906616211 -8.5
v 1 7.590169906616211 -6.5
v -2 7.590169906616211 -7.5
v 2 7.590169906616211 -4.5
v 3 7.590169906616211 -7.5
v 4 7.590169906616211 -5.5
v 1 7.590169906616211 -6.5
v 2 7.590169906616211 -4.5
v 5 7.590169906616211 -3.5
v 3 7.590169906616211 -2.5
v 4 7.590169906616211 -5.5
v 7.341102836733171e-9 7.590169906616211 -3.5
v 3 7.590169906616211 -2.5
v 1 7.590169906616211 -1.5
v 2 7.590169906616211 -4.5
v 3 7.590169906616211 -7.5
v 1 9.826237678527832 -6.5
v 3 9.826237678527832 -7.5
v 1 7.590169906616211 -6.5
vt 0.2083333283662796 0.7333333492279053
vt 0.1666666716337204 0.800000011920929
vt 0.2083333283662796 0.800000011920929
vt 0.1666666716337204 0.7333333492279053
vt 0.2083333283662796 0.6666666865348816
vt 0.1666666716337204 0.6666666865348816
vt 0.2916666567325592 0.6666666865348816
vt 0.25 0.7333333492279053
vt 0.2916666567325592 0.7333333492279053
vt 0.25 0.6666666865348816
vt 0.25 0.6000000238418579
vt 0.2083333283662796 0.6000000238418579
vt 0.375 0.4000000059604645
vt 0.3333333432674408 0.3333333432674408
vt 0.375 0.3333333432674408
vt 0.3333333432674408 0.4000000059604645
vt 0.375 0.46666666865348816
vt 0.3333333432674408 0.46666666865348816
vn 0 1 0
vn -0.4472136 0 -0.89442719
vn 0.89442719 0 -0.4472136
vn 0.4472136 0 0.89442719
vn -0.89442719 0 0.4472136
vn 0.44721358 1e-8 0.8944272
vn -0.44721359 0 -0.89442719
vn -0.89442719 0 0.44721359
vn 0.44721359 0 0.89442719
vn -0.66333334 -0.67081004 0.33166667
vn 0 -1 0
vn 0 0 1
vn 0 0 -1
vn -0.89442719 0 -0.4472136
vn 0.89442719 0 0.4472136
vn 0.89442719 1e-8 -0.44721359
vn 0.89442719 -1e-8 -0.4472136
vn 0.89442719 0 -0.44721359
g Tree
usemtl 6
f 1/1/1 3/2/1 2/3/1
f 1/1/1 4/4/1 3/2/1
f 5/1/1 6/2/1 7/3/1
f 5/1/1 8/4/1 6/2/1
f 9/1/1 10/2/1 11/3/1
f 9/1/1 12/4/1 10/2/1
f 13/1/1 14/2/1 15/3/1
f 13/1/1 16/4/1 14/2/1
f 17/1/2 18/2/2 19/3/2
f 17/1/2 20/4/2 18/2/2
f 21/1/2 22/2/2 23/3/2
f 21/1/2 24/4/2 22/2/2
f 25/1/2 26/2/2 27/3/2
f 25/1/2 28/4/2 26/2/2
f 29/1/3 30/2/3 31/3/3
f 29/1/3 32/4/3 30/2/3
f 33/1/4 34/2/4 35/3/4
f 33/1/4 36/4/4 34/2/4
f 37/1/3 38/2/3 39/3/3
f 37/1/3 40/4/3 38/2/3
f 41/1/4 42/2/4 43/3/4
f 41/1/4 44/4/4 42/2/4
f 45/1/4 46/2/4 47/3/4
f 45/1/4 48/4/4 46/2/4
f 49/1/5 50/2/5 51/3/5
f 49/1/5 52/4/5 50/2/5
f 53/1/5 54/2/5 55/3/5
f 53/1/5 56/4/5 54/2/5
f 57/5/1 58/4/1 59/1/1
f 57/5/1 60/6/1 58/4/1
f 61/5/1 62/4/1 63/1/1
f 61/5/1 64/6/1 62/4/1
f 65/5/1 66/4/1 67/1/1
f 65/5/1 68/6/1 66/4/1
f 69/5/1 70/4/1 71/1/1
f 69/5/1 72/6/1 70/4/1
f 73/5/1 74/4/1 75/1/1
f 73/5/1 76/6/1 74/4/1
f 77/5/1 78/4/1 79/1/1
f 77/5/1 80/6/1 78/4/1
f 81/5/1 82/4/1 83/1/1
f 81/5/1 84/6/1 82/4/1
f 85/5/1 86/4/1 87/1/1
f 85/5/1 88/6/1 86/4/1
f 89/5/1 90/4/1 91/1/1
f 89/5/1 92/6/1 90/4/1
f 93/5/5 94/4/5 95/1/5
f 93/5/5 96/6/5 94/4/5
usemtl 4
f 97/7/4 98/8/4 99/9/4
f 97/7/6 100/10/6 98/8/6
usemtl 2
f 101/11/2 102/5/2 103/10/2
f 101/11/7 104/12/7 102/5/7
f 105/11/2 106/5/2 107/10/2
f 105/11/2 108/12/2 106/5/2
f 109/10/5 110/12/5 111/11/5
f 109/10/5 112/5/5 110/12/5
f 113/10/2 114/12/2 115/11/2
f 113/10/2 116/5/2 114/12/2
f 117/10/5 118/12/5 119/11/5
f 117/10/5 120/5/5 118/12/5
f 121/10/4 122/12/4 123/11/4
f 121/10/4 124/5/4 122/12/4
f 125/10/5 126/12/5 127/11/5
f 125/10/8 128/5/8 126/12/8
f 129/10/4 130/12/4 131/11/4
f 129/10/9 132/5/9 130/12/9
f 133/13/10 134/14/10 135/15/10
f 133/13/10 136/16/10 134/14/10
f 137/13/11 138/14/11 139/15/11
f 137/13/11 140/16/11 138/14/11
f 141/13/11 142/14/11 143/15/11
f 141/13/11 144/16/11 142/14/11
f 145/13/2 146/14/2 147/15/2
f 145/13/2 148/16/2 146/14/2
f 149/13/2 150/14/2 151/15/2
f 149/13/2 152/16/2 150/14/2
f 153/13/9 154/14/9 155/15/9
f 153/13/4 156/16/4 154/14/4
f 157/13/4 158/14/4 159/15/4
f 157/13/4 160/16/4 158/14/4
f 161/13/12 162/14/12 163/15/12
f 161/13/12 164/16/12 162/14/12
f 165/17/3 166/16/3 167/13/3
f 165/17/3 168/18/3 166/16/3
f 169/17/13 170/16/13 171/13/13
f 169/17/13 172/18/13 170/16/13
f 173/17/14 174/16/14 175/13/14
f 173/17/14 176/18/14 174/16/14
f 177/17/15 178/16/15 179/13/15
f 177/17/15 180/18/15 178/16/15
f 181/13/15 182/14/15 183/15/15
f 181/13/15 184/16/15 182/14/15
f 185/15/3 186/14/3 187/13/3
f 186/14/3 188/16/3 187/13/3
f 189/13/14 190/16/14 191/15/14
f 190/16/14 192/14/14 191/15/14
f 193/15/13 194/14/13 195/13/13
f 194/14/13 196/16/13 195/13/13
f 197/13/15 198/14/15 199/15/15
f 197/13/15 200/16/15 198/14/15
f 201/15/3 202/16/3 203/13/3
f 201/15/3 204/14/3 202/16/3
f 205/15/14 206/16/14 207/13/14
f 205/15/14 208/14/14 206/16/14
f 209/15/13 210/16/13 211/13/13
f 209/15/13 212/14/13 210/16/13
f 213/15/14 214/16/14 215/13/14
f 213/15/14 216/14/14 214/16/14
f 217/15/14 218/16/14 219/13/14
f 217/15/14 220/14/14 218/16/14
f 221/15/14 222/16/14 223/13/14
f 221/15/14 224/14/14 222/16/14
f 225/15/13 226/16/13 227/13/13
f 225/15/13 228/14/13 226/16/13
f 229/15/13 230/16/13 231/13/13
f 229/15/13 232/14/13 230/16/13
f 233/15/13 234/16/13 235/13/13
f 233/15/13 236/14/13 234/16/13
f 237/13/3 238/14/3 239/15/3
f 237/13/3 240/16/3 238/14/3
f 241/13/3 242/14/3 243/15/3
f 241/13/3 244/16/3 242/14/3
f 245/13/3 246/14/3 247/15/3
f 245/13/3 248/16/3 246/14/3
f 249/15/12 250/16/12 251/13/12
f 249/15/12 252/14/12 250/16/12
f 253/13/12 254/14/12 255/15/12
f 253/13/12 256/16/12 254/14/12
f 257/15/12 258/16/12 259/13/12
f 257/15/12 260/14/12 258/16/12
f 261/13/12 262/14/12 263/15/12
f 261/13/12 264/16/12 262/14/12
f 265/13/15 266/18/15 267/17/15
f 265/13/15 268/16/15 266/18/15
f 269/17/15 270/16/15 271/13/15
f 269/17/15 272/18/15 270/16/15
f 273/13/15 274/18/15 275/17/15
f 273/13/15 276/16/15 274/18/15
f 277/13/5 278/18/5 279/17/5
f 277/13/5 280/16/5 278/18/5
f 281/17/5 282/16/5 283/13/5
f 281/17/5 284/18/5 282/16/5
f 285/13/5 286/18/5 287/17/5
f 285/13/5 288/16/5 286/18/5
f 289/17/5 290/16/5 291/13/5
f 289/17/5 292/18/5 290/16/5
f 293/15/5 294/16/5 295/13/5
f 293/15/5 296/14/5 294/16/5
f 297/13/12 298/14/12 299/15/12
f 297/13/12 300/16/12 298/14/12
f 301/10/4 302/12/4 303/11/4
f 301/10/4 304/5/4 302/12/4
f 305/10/3 306/12/3 307/11/3
f 305/10/3 308/5/3 306/12/3
f 309/10/3 310/12/3 311/11/3
f 309/10/3 312/5/3 310/12/3
f 313/10/11 314/12/11 315/11/11
f 313/10/11 316/5/11 314/12/11
f 317/10/3 318/12/3 319/11/3
f 317/10/3 320/5/3 318/12/3
f 321/11/3 322/5/3 323/10/3
f 321/11/16 324/12/16 322/5/16
f 325/10/17 326/12/17 327/11/17
f 325/10/18 328/5/18 326/12/18
f 329/13/13 330/16/13 331/15/13
f 330/16/13 332/14/13 331/15/13
f 333/10/5 334/12/5 335/11/5
f 333/10/5 336/5/5 334/12/5
f 337/15/14 338/14/14 339/13/14
f 338/14/14 340/16/14 339/13/14
f 341/13/3 342/16/3 343/15/3
f 342/16/3 344/14/3 343/15/3
f 345/15/12 346/16/12 347/13/12
f 345/15/12 348/14/12 346/16/12
f 349/13/5 350/14/5 351/15/5
f 349/13/5 352/16/5 350/14/5
f 353/15/15 354/16/15 355/13/15
f 353/15/15 356/14/15 354/16/15
f 357/10/11 358/12/11 359/11/11
f 357/10/11 360/5/11 358/12/11
f 361/10/11 362/12/11 363/11/11
f 361/10/11 364/5/11 362/12/11
f 365/10/11 366/12/11 367/11/11
f 365/10/11 368/5/11 366/12/11
f 369/10/11 370/12/11 371/11/11
f 369/10/11 372/5/11 370/12/11
f 373/10/11 374/12/11 375/11/11
f 373/10/11 376/5/11 374/12/11
f 377/10/11 378/12/11 379/11/11
f 377/10/11 380/5/11 378/12/11
f 381/10/11 382/12/11 383/11/11
f 381/10/11 384/5/11 382/12/11
f 385/10/11 386/12/11 387/11/11
f 385/10/11 388/5/11 386/12/11
usemtl 6
f 389/5/2 390/4/2 391/1/2
f 389/5/2 392/6/2 390/4/2
