mtllib material.mtl
o Default
v 0 0 -5
v -1.1102230246251565e-16 1 -5
v 1.1102230246251565e-16 1 -6
v 0 0 -6
v 0 0 -6
v 1.1102230246251565e-16 1 -7
v 1.1102230246251565e-16 1 -6
v 0 0 -7
v 0 0 -4
v -1.1102230246251565e-16 1 -5
v -1.1102230246251565e-16 1 -4
v 0 0 -5
v 0 0 -3
v -1.1102230246251565e-16 1 -4
v -1.1102230246251565e-16 1 -3
v 0 0 -4
v 0 0 -2
v -1.1102230246251565e-16 1 -3
v -1.1102230246251565e-16 1 -2
v 0 0 -3
v 0 0 -1
v -1.1102230246251565e-16 1 -2
v -1.1102230246251565e-16 1 -1
v 0 0 -2
v 0 0 0
v -1.1102230246251565e-16 1 -1
v -1.1102230246251565e-16 1 0
v 0 0 -1
v 1 0 0
v 1 1 -1
v 1 1 0
v 1 0 -1
v 1 0 -1
v 1 1 -2
v 1 1 -1
v 1 0 -2
v 1 0 -2
v 1 1 -3
v 1 1 -2
v 1 0 -3
v 1 0 -3
v 1 1 -4
v 1 1 -3
v 1 0 -4
v 1 0 -4
v 1 1 -5
v 1 1 -4
v 1 0 -5
v 1 0 -5
v 1 1 -6
v 1 1 -5
v 1 0 -6
v 1 0 -6
v 1 1 -7
v 1 1 -6
v 1 0 -7
v 0 0 0
v 1 1 0
v -1.1102230246251565e-16 1 0
v 1 0 0
v 0 0 -7
v 1 1 -7
v 1.1102230246251565e-16 1 -7
v 1 0 -7
v 1 0 -7
v 1 1 -6
v 1 1 -7
v 1 0 -6
v 1 0 -6
v 1 1 -5
v 1 1 -6
v 1 0 -5
v 1 0 -5
v 1 1 -4
v 1 1 -5
v 1 0 -4
v 1 0 -4
v 1 1 -3
v 1 1 -4
v 1 0 -3
v 1 0 -3
v 1 1 -2
v 1 1 -3
v 1 0 -2
v 1 0 -2
v 1 1 -1
v 1 1 -2
v 1 0 -1
v 1 0 -1
v 1 1 0
v 1 1 -1
v 1 0 0
v 0 0 -1
v -1.1102230246251565e-16 1 0
v -1.1102230246251565e-16 1 -1
v 0 0 0
v 0 0 -2
v -1.1102230246251565e-16 1 -1
v -1.1102230246251565e-16 1 -2
v 0 0 -1
v 0 0 -3
v -1.1102230246251565e-16 1 -2
v -1.1102230246251565e-16 1 -3
v 0 0 -2
v 0 0 -4
v -1.1102230246251565e-16 1 -3
v -1.1102230246251565e-16 1 -4
v 0 0 -3
v 0 0 -5
v -1.1102230246251565e-16 1 -4
v -1.1102230246251565e-16 1 -5
v 0 0 -4
v 0 0 -6
v -1.1102230246251565e-16 1 -5
v 1.1102230246251565e-16 1 -6
v 0 0 -5
v 0 0 -7
v 1.1102230246251565e-16 1 -6
v 1.1102230246251565e-16 1 -7
v 0 0 -6
v -1.1102230246251565e-16 1 0
v 1.1102230246251565e-16 2 -1
v -1.1102230246251565e-16 2 0
v -1.1102230246251565e-16 1 -1
v -1.1102230246251565e-16 1 -1
v 1.1102230246251565e-16 2 -2
v 1.1102230246251565e-16 2 -1
v -1.1102230246251565e-16 1 -2
v -1.1102230246251565e-16 1 -2
v 1.1102230246251565e-16 2 -3
v 1.1102230246251565e-16 2 -2
v -1.1102230246251565e-16 1 -3
v -1.1102230246251565e-16 1 -3
v 1.1102230246251565e-16 2 -4
v 1.1102230246251565e-16 2 -3
v -1.1102230246251565e-16 1 -4
v -1.1102230246251565e-16 1 -4
v 1.1102230246251565e-16 2 -5
v 1.1102230246251565e-16 2 -4
v -1.1102230246251565e-16 1 -5
v -1.1102230246251565e-16 1 -5
v 1.1102230246251565e-16 2 -6
v 1.1102230246251565e-16 2 -5
v 1.1102230246251565e-16 1 -6
v 1.1102230246251565e-16 1 -6
v 1.1102230246251565e-16 2 -7
v 1.1102230246251565e-16 2 -6
v 1.1102230246251565e-16 1 -7
v -1.1102230246251565e-16 1 0
v 1 2 0
v -1.1102230246251565e-16 2 0
v 1 1 0
v 1 1 0
v 1 2 -1
v 1 2 0
v 1 1 -1
v 1 1 -1
v 1 2 -2
v 1 2 -1
v 1 1 -2
v 1 1 -2
v 1 2 -3
v 1 2 -2
v 1 1 -3
v 1 1 -3
v 1 2 -4
v 1 2 -3
v 1 1 -4
v 1 1 -4
v 1 2 -5
v 1 2 -4
v 1 1 -5
v 1 1 -5
v 1 2 -6
v 1 2 -5
v 1 1 -6
v 1 1 -6
v 1 2 -7
v 1 2 -6
v 1 1 -7
v 1.1102230246251565e-16 1 -7
v 1 2 -7
v 1.1102230246251565e-16 2 -7
v 1 1 -7
v 1 1 -7
v 1 2 -6
v 1 2 -7
v 1 1 -6
v 1 1 -6
v 1 2 -5
v 1 2 -6
v 1 1 -5
v 1 1 -5
v 1 2 -4
v 1 2 -5
v 1 1 -4
v 1 1 -4
v 1 2 -3
v 1 2 -4
v 1 1 -3
v 1 1 -3
v 1 2 -2
v 1 2 -3
v 1 1 -2
v 1 1 -2
v 1 2 -1
v 1 2 -2
v 1 1 -1
v 1 1 -1
v 1 2 0
v 1 2 -1
v 1 1 0
v -1.1102230246251565e-16 1 -1
v -1.1102230246251565e-16 2 0
v 1.1102230246251565e-16 2 -1
v -1.1102230246251565e-16 1 0
v -1.1102230246251565e-16 1 -2
v 1.1102230246251565e-16 2 -1
v 1.1102230246251565e-16 2 -2
v -1.1102230246251565e-16 1 -1
v -1.1102230246251565e-16 1 -3
v 1.1102230246251565e-16 2 -2
v 1.1102230246251565e-16 2 -3
v -1.1102230246251565e-16 1 -2
v -1.1102230246251565e-16 1 -4
v 1.1102230246251565e-16 2 -3
v 1.1102230246251565e-16 2 -4
v -1.1102230246251565e-16 1 -3
v 1.1102230246251565e-16 1 -7
v 1.1102230246251565e-16 2 -6
v 1.1102230246251565e-16 2 -7
v 1.1102230246251565e-16 1 -6
v 1.1102230246251565e-16 1 -6
v 1.1102230246251565e-16 2 -5
v 1.1102230246251565e-16 2 -6
v -1.1102230246251565e-16 1 -5
v -1.1102230246251565e-16 1 -5
v 1.1102230246251565e-16 2 -4
v 1.1102230246251565e-16 2 -5
v 0 1 -4
vt 0.20000000298023224 0.9166666865348816
vt 0.15000000596046448 0.8333333134651184
vt 0.15000000596046448 0.9166666865348816
vt 0.20000000298023224 0.8333333134651184
vn 1 0 0
vn 0 0 1
vn -1 0 0
g FenceShort
usemtl 1
f 1/1/1 3/2/1 2/3/1
f 1/1/1 4/4/1 3/2/1
f 5/1/1 6/2/1 7/3/1
f 5/1/1 8/4/1 6/2/1
f 9/1/1 10/2/1 11/3/1
f 9/1/1 12/4/1 10/2/1
f 13/1/1 14/2/1 15/3/1
f 13/1/1 16/4/1 14/2/1
f 17/1/1 18/2/1 19/3/1
f 17/1/1 20/4/1 18/2/1
f 21/1/1 22/2/1 23/3/1
f 21/1/1 24/4/1 22/2/1
f 25/1/1 26/2/1 27/3/1
f 25/1/1 28/4/1 26/2/1
f 29/2/1 30/1/1 31/4/1
f 29/2/1 32/3/1 30/1/1
f 33/2/1 34/1/1 35/4/1
f 33/2/1 36/3/1 34/1/1
f 37/2/1 38/1/1 39/4/1
f 37/2/1 40/3/1 38/1/1
f 41/2/1 42/1/1 43/4/1
f 41/2/1 44/3/1 42/1/1
f 45/2/1 46/1/1 47/4/1
f 45/2/1 48/3/1 46/1/1
f 49/2/1 50/1/1 51/4/1
f 49/2/1 52/3/1 50/1/1
f 53/2/1 54/1/1 55/4/1
f 53/2/1 56/3/1 54/1/1
f 57/2/2 58/1/2 59/4/2
f 57/2/2 60/3/2 58/1/2
f 61/2/2 62/1/2 63/4/2
f 61/2/2 64/3/2 62/1/2
f 65/2/3 66/1/3 67/4/3
f 65/2/3 68/3/3 66/1/3
f 69/2/3 70/1/3 71/4/3
f 69/2/3 72/3/3 70/1/3
f 73/2/3 74/1/3 75/4/3
f 73/2/3 76/3/3 74/1/3
f 77/2/3 78/1/3 79/4/3
f 77/2/3 80/3/3 78/1/3
f 81/2/3 82/1/3 83/4/3
f 81/2/3 84/3/3 82/1/3
f 85/2/3 86/1/3 87/4/3
f 85/2/3 88/3/3 86/1/3
f 89/2/3 90/1/3 91/4/3
f 89/2/3 92/3/3 90/1/3
f 93/2/3 94/1/3 95/4/3
f 93/2/3 96/3/3 94/1/3
f 97/2/3 98/1/3 99/4/3
f 97/2/3 100/3/3 98/1/3
f 101/2/3 102/1/3 103/4/3
f 101/2/3 104/3/3 102/1/3
f 105/2/3 106/1/3 107/4/3
f 105/2/3 108/3/3 106/1/3
f 109/2/3 110/1/3 111/4/3
f 109/2/3 112/3/3 110/1/3
f 113/2/3 114/1/3 115/4/3
f 113/2/3 116/3/3 114/1/3
f 117/2/3 118/1/3 119/4/3
f 117/2/3 120/3/3 118/1/3
f 121/1/1 122/2/1 123/3/1
f 121/1/1 124/4/1 122/2/1
f 125/1/1 126/2/1 127/3/1
f 125/1/1 128/4/1 126/2/1
f 129/1/1 130/2/1 131/3/1
f 129/1/1 132/4/1 130/2/1
f 133/1/1 134/2/1 135/3/1
f 133/1/1 136/4/1 134/2/1
f 137/1/1 138/2/1 139/3/1
f 137/1/1 140/4/1 138/2/1
f 141/1/1 142/2/1 143/3/1
f 141/1/1 144/4/1 142/2/1
f 145/1/1 146/2/1 147/3/1
f 145/1/1 148/4/1 146/2/1
f 149/1/2 150/2/2 151/3/2
f 149/1/2 152/4/2 150/2/2
f 153/1/1 154/2/1 155/3/1
f 153/1/1 156/4/1 154/2/1
f 157/1/1 158/2/1 159/3/1
f 157/1/1 160/4/1 158/2/1
f 161/1/1 162/2/1 163/3/1
f 161/1/1 164/4/1 162/2/1
f 165/1/1 166/2/1 167/3/1
f 165/1/1 168/4/1 166/2/1
f 169/1/1 170/2/1 171/3/1
f 169/1/1 172/4/1 170/2/1
f 173/1/1 174/2/1 175/3/1
f 173/1/1 176/4/1 174/2/1
f 177/1/1 178/2/1 179/3/1
f 177/1/1 180/4/1 178/2/1
f 181/1/2 182/2/2 183/3/2
f 181/1/2 184/4/2 182/2/2
f 185/2/3 186/1/3 187/4/3
f 185/2/3 188/3/3 186/1/3
f 189/2/3 190/1/3 191/4/3
f 189/2/3 192/3/3 190/1/3
f 193/2/3 194/1/3 195/4/3
f 193/2/3 196/3/3 194/1/3
f 197/2/3 198/1/3 199/4/3
f 197/2/3 200/3/3 198/1/3
f 201/2/3 202/1/3 203/4/3
f 201/2/3 204/3/3 202/1/3
f 205/2/3 206/1/3 207/4/3
f 205/2/3 208/3/3 206/1/3
f 209/2/3 210/1/3 211/4/3
f 209/2/3 212/3/3 210/1/3
f 213/2/3 214/1/3 215/4/3
f 213/2/3 216/3/3 214/1/3
f 217/2/3 218/1/3 219/4/3
f 217/2/3 220/3/3 218/1/3
f 221/2/3 222/1/3 223/4/3
f 221/2/3 224/3/3 222/1/3
f 225/2/3 226/1/3 227/4/3
f 225/2/3 228/3/3 226/1/3
f 229/2/3 230/1/3 231/4/3
f 229/2/3 232/3/3 230/1/3
f 233/2/3 234/1/3 235/4/3
f 233/2/3 236/3/3 234/1/3
f 237/2/3 238/1/3 239/4/3
f 237/2/3 240/3/3 238/1/3
